<mxfile host="drawio-plugin" modified="2024-04-26T14:03:40.662Z" agent="5.0 (Macintosh; Intel Mac OS X 10_15_7) AppleWebKit/537.36 (KHTML, like Gecko) Chrome/111.0.0.0 Safari/537.36" etag="NZuncwS3Kj59P3-7PXP4" version="20.5.3" type="embed" pages="4"><diagram id="AVovzYAXDxIerD2RF7mc" name="ER tables"><mxGraphModel dx="774" dy="523" grid="1" gridSize="10" guides="1" tooltips="1" connect="1" arrows="1" fold="1" page="1" pageScale="1" pageWidth="850" pageHeight="1100" math="0" shadow="0"><root><mxCell id="0"/><mxCell id="1" parent="0"/><mxCell id="96WcqZQYeLVcaAsHiueP-1" value="Product" style="shape=table;startSize=30;container=1;collapsible=1;childLayout=tableLayout;fixedRows=1;rowLines=0;fontStyle=1;align=center;resizeLast=1;" parent="1" vertex="1"><mxGeometry x="320" y="40" width="180" height="240" as="geometry"/></mxCell><mxCell id="96WcqZQYeLVcaAsHiueP-2" value="" style="shape=tableRow;horizontal=0;startSize=0;swimlaneHead=0;swimlaneBody=0;fillColor=none;collapsible=0;dropTarget=0;points=[[0,0.5],[1,0.5]];portConstraint=eastwest;top=0;left=0;right=0;bottom=1;" parent="96WcqZQYeLVcaAsHiueP-1" vertex="1"><mxGeometry y="30" width="180" height="30" as="geometry"/></mxCell><mxCell id="96WcqZQYeLVcaAsHiueP-3" value="PPK" style="shape=partialRectangle;connectable=0;fillColor=none;top=0;left=0;bottom=0;right=0;fontStyle=1;overflow=hidden;" parent="96WcqZQYeLVcaAsHiueP-2" vertex="1"><mxGeometry width="30" height="30" as="geometry"><mxRectangle width="30" height="30" as="alternateBounds"/></mxGeometry></mxCell><mxCell id="96WcqZQYeLVcaAsHiueP-4" value="ProductID" style="shape=partialRectangle;connectable=0;fillColor=none;top=0;left=0;bottom=0;right=0;align=left;spacingLeft=6;fontStyle=5;overflow=hidden;" parent="96WcqZQYeLVcaAsHiueP-2" vertex="1"><mxGeometry x="30" width="150" height="30" as="geometry"><mxRectangle width="150" height="30" as="alternateBounds"/></mxGeometry></mxCell><mxCell id="96WcqZQYeLVcaAsHiueP-5" value="" style="shape=tableRow;horizontal=0;startSize=0;swimlaneHead=0;swimlaneBody=0;fillColor=none;collapsible=0;dropTarget=0;points=[[0,0.5],[1,0.5]];portConstraint=eastwest;top=0;left=0;right=0;bottom=1;" parent="96WcqZQYeLVcaAsHiueP-1" vertex="1"><mxGeometry y="60" width="180" height="30" as="geometry"/></mxCell><mxCell id="96WcqZQYeLVcaAsHiueP-6" value="PPK" style="shape=partialRectangle;connectable=0;fillColor=none;top=0;left=0;bottom=0;right=0;fontStyle=1;overflow=hidden;" parent="96WcqZQYeLVcaAsHiueP-5" vertex="1"><mxGeometry width="30" height="30" as="geometry"><mxRectangle width="30" height="30" as="alternateBounds"/></mxGeometry></mxCell><mxCell id="96WcqZQYeLVcaAsHiueP-7" value="BrandID" style="shape=partialRectangle;connectable=0;fillColor=none;top=0;left=0;bottom=0;right=0;align=left;spacingLeft=6;fontStyle=5;overflow=hidden;" parent="96WcqZQYeLVcaAsHiueP-5" vertex="1"><mxGeometry x="30" width="150" height="30" as="geometry"><mxRectangle width="150" height="30" as="alternateBounds"/></mxGeometry></mxCell><mxCell id="96WcqZQYeLVcaAsHiueP-8" value="" style="shape=tableRow;horizontal=0;startSize=0;swimlaneHead=0;swimlaneBody=0;fillColor=none;collapsible=0;dropTarget=0;points=[[0,0.5],[1,0.5]];portConstraint=eastwest;top=0;left=0;right=0;bottom=1;" parent="96WcqZQYeLVcaAsHiueP-1" vertex="1"><mxGeometry y="90" width="180" height="30" as="geometry"/></mxCell><mxCell id="96WcqZQYeLVcaAsHiueP-9" value="PPK" style="shape=partialRectangle;connectable=0;fillColor=none;top=0;left=0;bottom=0;right=0;fontStyle=1;overflow=hidden;" parent="96WcqZQYeLVcaAsHiueP-8" vertex="1"><mxGeometry width="30" height="30" as="geometry"><mxRectangle width="30" height="30" as="alternateBounds"/></mxGeometry></mxCell><mxCell id="96WcqZQYeLVcaAsHiueP-10" value="CategoryID" style="shape=partialRectangle;connectable=0;fillColor=none;top=0;left=0;bottom=0;right=0;align=left;spacingLeft=6;fontStyle=5;overflow=hidden;" parent="96WcqZQYeLVcaAsHiueP-8" vertex="1"><mxGeometry x="30" width="150" height="30" as="geometry"><mxRectangle width="150" height="30" as="alternateBounds"/></mxGeometry></mxCell><mxCell id="96WcqZQYeLVcaAsHiueP-11" value="" style="shape=tableRow;horizontal=0;startSize=0;swimlaneHead=0;swimlaneBody=0;fillColor=none;collapsible=0;dropTarget=0;points=[[0,0.5],[1,0.5]];portConstraint=eastwest;top=0;left=0;right=0;bottom=0;" parent="96WcqZQYeLVcaAsHiueP-1" vertex="1"><mxGeometry y="120" width="180" height="30" as="geometry"/></mxCell><mxCell id="96WcqZQYeLVcaAsHiueP-12" value="" style="shape=partialRectangle;connectable=0;fillColor=none;top=0;left=0;bottom=0;right=0;editable=1;overflow=hidden;" parent="96WcqZQYeLVcaAsHiueP-11" vertex="1"><mxGeometry width="30" height="30" as="geometry"><mxRectangle width="30" height="30" as="alternateBounds"/></mxGeometry></mxCell><mxCell id="96WcqZQYeLVcaAsHiueP-13" value="Name" style="shape=partialRectangle;connectable=0;fillColor=none;top=0;left=0;bottom=0;right=0;align=left;spacingLeft=6;overflow=hidden;" parent="96WcqZQYeLVcaAsHiueP-11" vertex="1"><mxGeometry x="30" width="150" height="30" as="geometry"><mxRectangle width="150" height="30" as="alternateBounds"/></mxGeometry></mxCell><mxCell id="96WcqZQYeLVcaAsHiueP-14" value="" style="shape=tableRow;horizontal=0;startSize=0;swimlaneHead=0;swimlaneBody=0;fillColor=none;collapsible=0;dropTarget=0;points=[[0,0.5],[1,0.5]];portConstraint=eastwest;top=0;left=0;right=0;bottom=0;" parent="96WcqZQYeLVcaAsHiueP-1" vertex="1"><mxGeometry y="150" width="180" height="30" as="geometry"/></mxCell><mxCell id="96WcqZQYeLVcaAsHiueP-15" value="" style="shape=partialRectangle;connectable=0;fillColor=none;top=0;left=0;bottom=0;right=0;editable=1;overflow=hidden;" parent="96WcqZQYeLVcaAsHiueP-14" vertex="1"><mxGeometry width="30" height="30" as="geometry"><mxRectangle width="30" height="30" as="alternateBounds"/></mxGeometry></mxCell><mxCell id="96WcqZQYeLVcaAsHiueP-16" value="Description" style="shape=partialRectangle;connectable=0;fillColor=none;top=0;left=0;bottom=0;right=0;align=left;spacingLeft=6;overflow=hidden;" parent="96WcqZQYeLVcaAsHiueP-14" vertex="1"><mxGeometry x="30" width="150" height="30" as="geometry"><mxRectangle width="150" height="30" as="alternateBounds"/></mxGeometry></mxCell><mxCell id="96WcqZQYeLVcaAsHiueP-17" value="" style="shape=tableRow;horizontal=0;startSize=0;swimlaneHead=0;swimlaneBody=0;fillColor=none;collapsible=0;dropTarget=0;points=[[0,0.5],[1,0.5]];portConstraint=eastwest;top=0;left=0;right=0;bottom=0;" parent="96WcqZQYeLVcaAsHiueP-1" vertex="1"><mxGeometry y="180" width="180" height="30" as="geometry"/></mxCell><mxCell id="96WcqZQYeLVcaAsHiueP-18" value="" style="shape=partialRectangle;connectable=0;fillColor=none;top=0;left=0;bottom=0;right=0;editable=1;overflow=hidden;" parent="96WcqZQYeLVcaAsHiueP-17" vertex="1"><mxGeometry width="30" height="30" as="geometry"><mxRectangle width="30" height="30" as="alternateBounds"/></mxGeometry></mxCell><mxCell id="96WcqZQYeLVcaAsHiueP-19" value="Price" style="shape=partialRectangle;connectable=0;fillColor=none;top=0;left=0;bottom=0;right=0;align=left;spacingLeft=6;overflow=hidden;" parent="96WcqZQYeLVcaAsHiueP-17" vertex="1"><mxGeometry x="30" width="150" height="30" as="geometry"><mxRectangle width="150" height="30" as="alternateBounds"/></mxGeometry></mxCell><mxCell id="96WcqZQYeLVcaAsHiueP-20" value="" style="shape=tableRow;horizontal=0;startSize=0;swimlaneHead=0;swimlaneBody=0;fillColor=none;collapsible=0;dropTarget=0;points=[[0,0.5],[1,0.5]];portConstraint=eastwest;top=0;left=0;right=0;bottom=0;" parent="96WcqZQYeLVcaAsHiueP-1" vertex="1"><mxGeometry y="210" width="180" height="30" as="geometry"/></mxCell><mxCell id="96WcqZQYeLVcaAsHiueP-21" value="" style="shape=partialRectangle;connectable=0;fillColor=none;top=0;left=0;bottom=0;right=0;editable=1;overflow=hidden;" parent="96WcqZQYeLVcaAsHiueP-20" vertex="1"><mxGeometry width="30" height="30" as="geometry"><mxRectangle width="30" height="30" as="alternateBounds"/></mxGeometry></mxCell><mxCell id="96WcqZQYeLVcaAsHiueP-22" value="StockQuantity" style="shape=partialRectangle;connectable=0;fillColor=none;top=0;left=0;bottom=0;right=0;align=left;spacingLeft=6;overflow=hidden;" parent="96WcqZQYeLVcaAsHiueP-20" vertex="1"><mxGeometry x="30" width="150" height="30" as="geometry"><mxRectangle width="150" height="30" as="alternateBounds"/></mxGeometry></mxCell><mxCell id="96WcqZQYeLVcaAsHiueP-23" value="Category " style="shape=table;startSize=30;container=1;collapsible=1;childLayout=tableLayout;fixedRows=1;rowLines=0;fontStyle=1;align=center;resizeLast=1;" parent="1" vertex="1"><mxGeometry x="600" y="185" width="180" height="120" as="geometry"/></mxCell><mxCell id="96WcqZQYeLVcaAsHiueP-24" value="" style="shape=tableRow;horizontal=0;startSize=0;swimlaneHead=0;swimlaneBody=0;fillColor=none;collapsible=0;dropTarget=0;points=[[0,0.5],[1,0.5]];portConstraint=eastwest;top=0;left=0;right=0;bottom=1;" parent="96WcqZQYeLVcaAsHiueP-23" vertex="1"><mxGeometry y="30" width="180" height="30" as="geometry"/></mxCell><mxCell id="96WcqZQYeLVcaAsHiueP-25" value="PK" style="shape=partialRectangle;connectable=0;fillColor=none;top=0;left=0;bottom=0;right=0;fontStyle=1;overflow=hidden;" parent="96WcqZQYeLVcaAsHiueP-24" vertex="1"><mxGeometry width="30" height="30" as="geometry"><mxRectangle width="30" height="30" as="alternateBounds"/></mxGeometry></mxCell><mxCell id="96WcqZQYeLVcaAsHiueP-26" value="CategoryID" style="shape=partialRectangle;connectable=0;fillColor=none;top=0;left=0;bottom=0;right=0;align=left;spacingLeft=6;fontStyle=5;overflow=hidden;" parent="96WcqZQYeLVcaAsHiueP-24" vertex="1"><mxGeometry x="30" width="150" height="30" as="geometry"><mxRectangle width="150" height="30" as="alternateBounds"/></mxGeometry></mxCell><mxCell id="96WcqZQYeLVcaAsHiueP-27" value="" style="shape=tableRow;horizontal=0;startSize=0;swimlaneHead=0;swimlaneBody=0;fillColor=none;collapsible=0;dropTarget=0;points=[[0,0.5],[1,0.5]];portConstraint=eastwest;top=0;left=0;right=0;bottom=0;" parent="96WcqZQYeLVcaAsHiueP-23" vertex="1"><mxGeometry y="60" width="180" height="30" as="geometry"/></mxCell><mxCell id="96WcqZQYeLVcaAsHiueP-28" value="" style="shape=partialRectangle;connectable=0;fillColor=none;top=0;left=0;bottom=0;right=0;editable=1;overflow=hidden;" parent="96WcqZQYeLVcaAsHiueP-27" vertex="1"><mxGeometry width="30" height="30" as="geometry"><mxRectangle width="30" height="30" as="alternateBounds"/></mxGeometry></mxCell><mxCell id="96WcqZQYeLVcaAsHiueP-29" value="Name" style="shape=partialRectangle;connectable=0;fillColor=none;top=0;left=0;bottom=0;right=0;align=left;spacingLeft=6;overflow=hidden;" parent="96WcqZQYeLVcaAsHiueP-27" vertex="1"><mxGeometry x="30" width="150" height="30" as="geometry"><mxRectangle width="150" height="30" as="alternateBounds"/></mxGeometry></mxCell><mxCell id="96WcqZQYeLVcaAsHiueP-30" value="" style="shape=tableRow;horizontal=0;startSize=0;swimlaneHead=0;swimlaneBody=0;fillColor=none;collapsible=0;dropTarget=0;points=[[0,0.5],[1,0.5]];portConstraint=eastwest;top=0;left=0;right=0;bottom=0;" parent="96WcqZQYeLVcaAsHiueP-23" vertex="1"><mxGeometry y="90" width="180" height="30" as="geometry"/></mxCell><mxCell id="96WcqZQYeLVcaAsHiueP-31" value="" style="shape=partialRectangle;connectable=0;fillColor=none;top=0;left=0;bottom=0;right=0;editable=1;overflow=hidden;" parent="96WcqZQYeLVcaAsHiueP-30" vertex="1"><mxGeometry width="30" height="30" as="geometry"><mxRectangle width="30" height="30" as="alternateBounds"/></mxGeometry></mxCell><mxCell id="96WcqZQYeLVcaAsHiueP-32" value="Description" style="shape=partialRectangle;connectable=0;fillColor=none;top=0;left=0;bottom=0;right=0;align=left;spacingLeft=6;overflow=hidden;" parent="96WcqZQYeLVcaAsHiueP-30" vertex="1"><mxGeometry x="30" width="150" height="30" as="geometry"><mxRectangle width="150" height="30" as="alternateBounds"/></mxGeometry></mxCell><mxCell id="96WcqZQYeLVcaAsHiueP-33" value="User " style="shape=table;startSize=30;container=1;collapsible=1;childLayout=tableLayout;fixedRows=1;rowLines=0;fontStyle=1;align=center;resizeLast=1;" parent="1" vertex="1"><mxGeometry x="10" y="40" width="170" height="390" as="geometry"/></mxCell><mxCell id="96WcqZQYeLVcaAsHiueP-34" value="" style="shape=tableRow;horizontal=0;startSize=0;swimlaneHead=0;swimlaneBody=0;fillColor=none;collapsible=0;dropTarget=0;points=[[0,0.5],[1,0.5]];portConstraint=eastwest;top=0;left=0;right=0;bottom=1;" parent="96WcqZQYeLVcaAsHiueP-33" vertex="1"><mxGeometry y="30" width="170" height="30" as="geometry"/></mxCell><mxCell id="96WcqZQYeLVcaAsHiueP-35" value="PK" style="shape=partialRectangle;connectable=0;fillColor=none;top=0;left=0;bottom=0;right=0;fontStyle=1;overflow=hidden;" parent="96WcqZQYeLVcaAsHiueP-34" vertex="1"><mxGeometry width="30" height="30" as="geometry"><mxRectangle width="30" height="30" as="alternateBounds"/></mxGeometry></mxCell><mxCell id="96WcqZQYeLVcaAsHiueP-36" value="UserID" style="shape=partialRectangle;connectable=0;fillColor=none;top=0;left=0;bottom=0;right=0;align=left;spacingLeft=6;fontStyle=5;overflow=hidden;" parent="96WcqZQYeLVcaAsHiueP-34" vertex="1"><mxGeometry x="30" width="140" height="30" as="geometry"><mxRectangle width="140" height="30" as="alternateBounds"/></mxGeometry></mxCell><mxCell id="96WcqZQYeLVcaAsHiueP-37" value="" style="shape=tableRow;horizontal=0;startSize=0;swimlaneHead=0;swimlaneBody=0;fillColor=none;collapsible=0;dropTarget=0;points=[[0,0.5],[1,0.5]];portConstraint=eastwest;top=0;left=0;right=0;bottom=0;" parent="96WcqZQYeLVcaAsHiueP-33" vertex="1"><mxGeometry y="60" width="170" height="30" as="geometry"/></mxCell><mxCell id="96WcqZQYeLVcaAsHiueP-38" value="" style="shape=partialRectangle;connectable=0;fillColor=none;top=0;left=0;bottom=0;right=0;editable=1;overflow=hidden;" parent="96WcqZQYeLVcaAsHiueP-37" vertex="1"><mxGeometry width="30" height="30" as="geometry"><mxRectangle width="30" height="30" as="alternateBounds"/></mxGeometry></mxCell><mxCell id="96WcqZQYeLVcaAsHiueP-39" value="Username" style="shape=partialRectangle;connectable=0;fillColor=none;top=0;left=0;bottom=0;right=0;align=left;spacingLeft=6;overflow=hidden;" parent="96WcqZQYeLVcaAsHiueP-37" vertex="1"><mxGeometry x="30" width="140" height="30" as="geometry"><mxRectangle width="140" height="30" as="alternateBounds"/></mxGeometry></mxCell><mxCell id="96WcqZQYeLVcaAsHiueP-40" value="" style="shape=tableRow;horizontal=0;startSize=0;swimlaneHead=0;swimlaneBody=0;fillColor=none;collapsible=0;dropTarget=0;points=[[0,0.5],[1,0.5]];portConstraint=eastwest;top=0;left=0;right=0;bottom=0;" parent="96WcqZQYeLVcaAsHiueP-33" vertex="1"><mxGeometry y="90" width="170" height="30" as="geometry"/></mxCell><mxCell id="96WcqZQYeLVcaAsHiueP-41" value="" style="shape=partialRectangle;connectable=0;fillColor=none;top=0;left=0;bottom=0;right=0;editable=1;overflow=hidden;" parent="96WcqZQYeLVcaAsHiueP-40" vertex="1"><mxGeometry width="30" height="30" as="geometry"><mxRectangle width="30" height="30" as="alternateBounds"/></mxGeometry></mxCell><mxCell id="96WcqZQYeLVcaAsHiueP-42" value="Password" style="shape=partialRectangle;connectable=0;fillColor=none;top=0;left=0;bottom=0;right=0;align=left;spacingLeft=6;overflow=hidden;" parent="96WcqZQYeLVcaAsHiueP-40" vertex="1"><mxGeometry x="30" width="140" height="30" as="geometry"><mxRectangle width="140" height="30" as="alternateBounds"/></mxGeometry></mxCell><mxCell id="96WcqZQYeLVcaAsHiueP-43" value="" style="shape=tableRow;horizontal=0;startSize=0;swimlaneHead=0;swimlaneBody=0;fillColor=none;collapsible=0;dropTarget=0;points=[[0,0.5],[1,0.5]];portConstraint=eastwest;top=0;left=0;right=0;bottom=0;" parent="96WcqZQYeLVcaAsHiueP-33" vertex="1"><mxGeometry y="120" width="170" height="30" as="geometry"/></mxCell><mxCell id="96WcqZQYeLVcaAsHiueP-44" value="" style="shape=partialRectangle;connectable=0;fillColor=none;top=0;left=0;bottom=0;right=0;editable=1;overflow=hidden;" parent="96WcqZQYeLVcaAsHiueP-43" vertex="1"><mxGeometry width="30" height="30" as="geometry"><mxRectangle width="30" height="30" as="alternateBounds"/></mxGeometry></mxCell><mxCell id="96WcqZQYeLVcaAsHiueP-45" value="Email" style="shape=partialRectangle;connectable=0;fillColor=none;top=0;left=0;bottom=0;right=0;align=left;spacingLeft=6;overflow=hidden;" parent="96WcqZQYeLVcaAsHiueP-43" vertex="1"><mxGeometry x="30" width="140" height="30" as="geometry"><mxRectangle width="140" height="30" as="alternateBounds"/></mxGeometry></mxCell><mxCell id="96WcqZQYeLVcaAsHiueP-46" value="" style="shape=tableRow;horizontal=0;startSize=0;swimlaneHead=0;swimlaneBody=0;fillColor=none;collapsible=0;dropTarget=0;points=[[0,0.5],[1,0.5]];portConstraint=eastwest;top=0;left=0;right=0;bottom=0;" parent="96WcqZQYeLVcaAsHiueP-33" vertex="1"><mxGeometry y="150" width="170" height="30" as="geometry"/></mxCell><mxCell id="96WcqZQYeLVcaAsHiueP-47" value="" style="shape=partialRectangle;connectable=0;fillColor=none;top=0;left=0;bottom=0;right=0;editable=1;overflow=hidden;" parent="96WcqZQYeLVcaAsHiueP-46" vertex="1"><mxGeometry width="30" height="30" as="geometry"><mxRectangle width="30" height="30" as="alternateBounds"/></mxGeometry></mxCell><mxCell id="96WcqZQYeLVcaAsHiueP-48" value="FirstName" style="shape=partialRectangle;connectable=0;fillColor=none;top=0;left=0;bottom=0;right=0;align=left;spacingLeft=6;overflow=hidden;" parent="96WcqZQYeLVcaAsHiueP-46" vertex="1"><mxGeometry x="30" width="140" height="30" as="geometry"><mxRectangle width="140" height="30" as="alternateBounds"/></mxGeometry></mxCell><mxCell id="96WcqZQYeLVcaAsHiueP-49" value="" style="shape=tableRow;horizontal=0;startSize=0;swimlaneHead=0;swimlaneBody=0;fillColor=none;collapsible=0;dropTarget=0;points=[[0,0.5],[1,0.5]];portConstraint=eastwest;top=0;left=0;right=0;bottom=0;" parent="96WcqZQYeLVcaAsHiueP-33" vertex="1"><mxGeometry y="180" width="170" height="30" as="geometry"/></mxCell><mxCell id="96WcqZQYeLVcaAsHiueP-50" value="" style="shape=partialRectangle;connectable=0;fillColor=none;top=0;left=0;bottom=0;right=0;editable=1;overflow=hidden;" parent="96WcqZQYeLVcaAsHiueP-49" vertex="1"><mxGeometry width="30" height="30" as="geometry"><mxRectangle width="30" height="30" as="alternateBounds"/></mxGeometry></mxCell><mxCell id="96WcqZQYeLVcaAsHiueP-51" value="LastName" style="shape=partialRectangle;connectable=0;fillColor=none;top=0;left=0;bottom=0;right=0;align=left;spacingLeft=6;overflow=hidden;" parent="96WcqZQYeLVcaAsHiueP-49" vertex="1"><mxGeometry x="30" width="140" height="30" as="geometry"><mxRectangle width="140" height="30" as="alternateBounds"/></mxGeometry></mxCell><mxCell id="96WcqZQYeLVcaAsHiueP-52" value="" style="shape=tableRow;horizontal=0;startSize=0;swimlaneHead=0;swimlaneBody=0;fillColor=none;collapsible=0;dropTarget=0;points=[[0,0.5],[1,0.5]];portConstraint=eastwest;top=0;left=0;right=0;bottom=0;" parent="96WcqZQYeLVcaAsHiueP-33" vertex="1"><mxGeometry y="210" width="170" height="30" as="geometry"/></mxCell><mxCell id="96WcqZQYeLVcaAsHiueP-53" value="" style="shape=partialRectangle;connectable=0;fillColor=none;top=0;left=0;bottom=0;right=0;editable=1;overflow=hidden;" parent="96WcqZQYeLVcaAsHiueP-52" vertex="1"><mxGeometry width="30" height="30" as="geometry"><mxRectangle width="30" height="30" as="alternateBounds"/></mxGeometry></mxCell><mxCell id="96WcqZQYeLVcaAsHiueP-54" value="Address" style="shape=partialRectangle;connectable=0;fillColor=none;top=0;left=0;bottom=0;right=0;align=left;spacingLeft=6;overflow=hidden;" parent="96WcqZQYeLVcaAsHiueP-52" vertex="1"><mxGeometry x="30" width="140" height="30" as="geometry"><mxRectangle width="140" height="30" as="alternateBounds"/></mxGeometry></mxCell><mxCell id="96WcqZQYeLVcaAsHiueP-55" value="" style="shape=tableRow;horizontal=0;startSize=0;swimlaneHead=0;swimlaneBody=0;fillColor=none;collapsible=0;dropTarget=0;points=[[0,0.5],[1,0.5]];portConstraint=eastwest;top=0;left=0;right=0;bottom=0;" parent="96WcqZQYeLVcaAsHiueP-33" vertex="1"><mxGeometry y="240" width="170" height="30" as="geometry"/></mxCell><mxCell id="96WcqZQYeLVcaAsHiueP-56" value="" style="shape=partialRectangle;connectable=0;fillColor=none;top=0;left=0;bottom=0;right=0;editable=1;overflow=hidden;" parent="96WcqZQYeLVcaAsHiueP-55" vertex="1"><mxGeometry width="30" height="30" as="geometry"><mxRectangle width="30" height="30" as="alternateBounds"/></mxGeometry></mxCell><mxCell id="96WcqZQYeLVcaAsHiueP-57" value="PostalCode" style="shape=partialRectangle;connectable=0;fillColor=none;top=0;left=0;bottom=0;right=0;align=left;spacingLeft=6;overflow=hidden;" parent="96WcqZQYeLVcaAsHiueP-55" vertex="1"><mxGeometry x="30" width="140" height="30" as="geometry"><mxRectangle width="140" height="30" as="alternateBounds"/></mxGeometry></mxCell><mxCell id="96WcqZQYeLVcaAsHiueP-58" value="" style="shape=tableRow;horizontal=0;startSize=0;swimlaneHead=0;swimlaneBody=0;fillColor=none;collapsible=0;dropTarget=0;points=[[0,0.5],[1,0.5]];portConstraint=eastwest;top=0;left=0;right=0;bottom=0;" parent="96WcqZQYeLVcaAsHiueP-33" vertex="1"><mxGeometry y="270" width="170" height="30" as="geometry"/></mxCell><mxCell id="96WcqZQYeLVcaAsHiueP-59" value="" style="shape=partialRectangle;connectable=0;fillColor=none;top=0;left=0;bottom=0;right=0;editable=1;overflow=hidden;" parent="96WcqZQYeLVcaAsHiueP-58" vertex="1"><mxGeometry width="30" height="30" as="geometry"><mxRectangle width="30" height="30" as="alternateBounds"/></mxGeometry></mxCell><mxCell id="96WcqZQYeLVcaAsHiueP-60" value="PostalAddress" style="shape=partialRectangle;connectable=0;fillColor=none;top=0;left=0;bottom=0;right=0;align=left;spacingLeft=6;overflow=hidden;" parent="96WcqZQYeLVcaAsHiueP-58" vertex="1"><mxGeometry x="30" width="140" height="30" as="geometry"><mxRectangle width="140" height="30" as="alternateBounds"/></mxGeometry></mxCell><mxCell id="96WcqZQYeLVcaAsHiueP-61" value="" style="shape=tableRow;horizontal=0;startSize=0;swimlaneHead=0;swimlaneBody=0;fillColor=none;collapsible=0;dropTarget=0;points=[[0,0.5],[1,0.5]];portConstraint=eastwest;top=0;left=0;right=0;bottom=0;" parent="96WcqZQYeLVcaAsHiueP-33" vertex="1"><mxGeometry y="300" width="170" height="30" as="geometry"/></mxCell><mxCell id="96WcqZQYeLVcaAsHiueP-62" value="" style="shape=partialRectangle;connectable=0;fillColor=none;top=0;left=0;bottom=0;right=0;editable=1;overflow=hidden;" parent="96WcqZQYeLVcaAsHiueP-61" vertex="1"><mxGeometry width="30" height="30" as="geometry"><mxRectangle width="30" height="30" as="alternateBounds"/></mxGeometry></mxCell><mxCell id="96WcqZQYeLVcaAsHiueP-63" value="Municipality" style="shape=partialRectangle;connectable=0;fillColor=none;top=0;left=0;bottom=0;right=0;align=left;spacingLeft=6;overflow=hidden;" parent="96WcqZQYeLVcaAsHiueP-61" vertex="1"><mxGeometry x="30" width="140" height="30" as="geometry"><mxRectangle width="140" height="30" as="alternateBounds"/></mxGeometry></mxCell><mxCell id="96WcqZQYeLVcaAsHiueP-64" value="" style="shape=tableRow;horizontal=0;startSize=0;swimlaneHead=0;swimlaneBody=0;fillColor=none;collapsible=0;dropTarget=0;points=[[0,0.5],[1,0.5]];portConstraint=eastwest;top=0;left=0;right=0;bottom=0;" parent="96WcqZQYeLVcaAsHiueP-33" vertex="1"><mxGeometry y="330" width="170" height="30" as="geometry"/></mxCell><mxCell id="96WcqZQYeLVcaAsHiueP-65" value="" style="shape=partialRectangle;connectable=0;fillColor=none;top=0;left=0;bottom=0;right=0;editable=1;overflow=hidden;" parent="96WcqZQYeLVcaAsHiueP-64" vertex="1"><mxGeometry width="30" height="30" as="geometry"><mxRectangle width="30" height="30" as="alternateBounds"/></mxGeometry></mxCell><mxCell id="96WcqZQYeLVcaAsHiueP-66" value="County" style="shape=partialRectangle;connectable=0;fillColor=none;top=0;left=0;bottom=0;right=0;align=left;spacingLeft=6;overflow=hidden;" parent="96WcqZQYeLVcaAsHiueP-64" vertex="1"><mxGeometry x="30" width="140" height="30" as="geometry"><mxRectangle width="140" height="30" as="alternateBounds"/></mxGeometry></mxCell><mxCell id="96WcqZQYeLVcaAsHiueP-67" value="" style="shape=tableRow;horizontal=0;startSize=0;swimlaneHead=0;swimlaneBody=0;fillColor=none;collapsible=0;dropTarget=0;points=[[0,0.5],[1,0.5]];portConstraint=eastwest;top=0;left=0;right=0;bottom=0;" parent="96WcqZQYeLVcaAsHiueP-33" vertex="1"><mxGeometry y="360" width="170" height="30" as="geometry"/></mxCell><mxCell id="96WcqZQYeLVcaAsHiueP-68" value="" style="shape=partialRectangle;connectable=0;fillColor=none;top=0;left=0;bottom=0;right=0;editable=1;overflow=hidden;" parent="96WcqZQYeLVcaAsHiueP-67" vertex="1"><mxGeometry width="30" height="30" as="geometry"><mxRectangle width="30" height="30" as="alternateBounds"/></mxGeometry></mxCell><mxCell id="96WcqZQYeLVcaAsHiueP-69" value="Country" style="shape=partialRectangle;connectable=0;fillColor=none;top=0;left=0;bottom=0;right=0;align=left;spacingLeft=6;overflow=hidden;" parent="96WcqZQYeLVcaAsHiueP-67" vertex="1"><mxGeometry x="30" width="140" height="30" as="geometry"><mxRectangle width="140" height="30" as="alternateBounds"/></mxGeometry></mxCell><mxCell id="96WcqZQYeLVcaAsHiueP-70" value="Brand" style="shape=table;startSize=30;container=1;collapsible=1;childLayout=tableLayout;fixedRows=1;rowLines=0;fontStyle=1;align=center;resizeLast=1;" parent="1" vertex="1"><mxGeometry x="700" y="20" width="180" height="120" as="geometry"/></mxCell><mxCell id="96WcqZQYeLVcaAsHiueP-71" value="" style="shape=tableRow;horizontal=0;startSize=0;swimlaneHead=0;swimlaneBody=0;fillColor=none;collapsible=0;dropTarget=0;points=[[0,0.5],[1,0.5]];portConstraint=eastwest;top=0;left=0;right=0;bottom=1;" parent="96WcqZQYeLVcaAsHiueP-70" vertex="1"><mxGeometry y="30" width="180" height="30" as="geometry"/></mxCell><mxCell id="96WcqZQYeLVcaAsHiueP-72" value="PK" style="shape=partialRectangle;connectable=0;fillColor=none;top=0;left=0;bottom=0;right=0;fontStyle=1;overflow=hidden;" parent="96WcqZQYeLVcaAsHiueP-71" vertex="1"><mxGeometry width="30" height="30" as="geometry"><mxRectangle width="30" height="30" as="alternateBounds"/></mxGeometry></mxCell><mxCell id="96WcqZQYeLVcaAsHiueP-73" value="BrandID" style="shape=partialRectangle;connectable=0;fillColor=none;top=0;left=0;bottom=0;right=0;align=left;spacingLeft=6;fontStyle=5;overflow=hidden;" parent="96WcqZQYeLVcaAsHiueP-71" vertex="1"><mxGeometry x="30" width="150" height="30" as="geometry"><mxRectangle width="150" height="30" as="alternateBounds"/></mxGeometry></mxCell><mxCell id="96WcqZQYeLVcaAsHiueP-74" value="" style="shape=tableRow;horizontal=0;startSize=0;swimlaneHead=0;swimlaneBody=0;fillColor=none;collapsible=0;dropTarget=0;points=[[0,0.5],[1,0.5]];portConstraint=eastwest;top=0;left=0;right=0;bottom=0;" parent="96WcqZQYeLVcaAsHiueP-70" vertex="1"><mxGeometry y="60" width="180" height="30" as="geometry"/></mxCell><mxCell id="96WcqZQYeLVcaAsHiueP-75" value="" style="shape=partialRectangle;connectable=0;fillColor=none;top=0;left=0;bottom=0;right=0;editable=1;overflow=hidden;" parent="96WcqZQYeLVcaAsHiueP-74" vertex="1"><mxGeometry width="30" height="30" as="geometry"><mxRectangle width="30" height="30" as="alternateBounds"/></mxGeometry></mxCell><mxCell id="96WcqZQYeLVcaAsHiueP-76" value="Name" style="shape=partialRectangle;connectable=0;fillColor=none;top=0;left=0;bottom=0;right=0;align=left;spacingLeft=6;overflow=hidden;" parent="96WcqZQYeLVcaAsHiueP-74" vertex="1"><mxGeometry x="30" width="150" height="30" as="geometry"><mxRectangle width="150" height="30" as="alternateBounds"/></mxGeometry></mxCell><mxCell id="96WcqZQYeLVcaAsHiueP-77" value="" style="shape=tableRow;horizontal=0;startSize=0;swimlaneHead=0;swimlaneBody=0;fillColor=none;collapsible=0;dropTarget=0;points=[[0,0.5],[1,0.5]];portConstraint=eastwest;top=0;left=0;right=0;bottom=0;" parent="96WcqZQYeLVcaAsHiueP-70" vertex="1"><mxGeometry y="90" width="180" height="30" as="geometry"/></mxCell><mxCell id="96WcqZQYeLVcaAsHiueP-78" value="" style="shape=partialRectangle;connectable=0;fillColor=none;top=0;left=0;bottom=0;right=0;editable=1;overflow=hidden;" parent="96WcqZQYeLVcaAsHiueP-77" vertex="1"><mxGeometry width="30" height="30" as="geometry"><mxRectangle width="30" height="30" as="alternateBounds"/></mxGeometry></mxCell><mxCell id="96WcqZQYeLVcaAsHiueP-79" value="Description" style="shape=partialRectangle;connectable=0;fillColor=none;top=0;left=0;bottom=0;right=0;align=left;spacingLeft=6;overflow=hidden;" parent="96WcqZQYeLVcaAsHiueP-77" vertex="1"><mxGeometry x="30" width="150" height="30" as="geometry"><mxRectangle width="150" height="30" as="alternateBounds"/></mxGeometry></mxCell><mxCell id="96WcqZQYeLVcaAsHiueP-80" style="edgeStyle=none;html=1;exitX=0;exitY=0.5;exitDx=0;exitDy=0;entryX=-0.008;entryY=0.774;entryDx=0;entryDy=0;entryPerimeter=0;" parent="96WcqZQYeLVcaAsHiueP-70" source="96WcqZQYeLVcaAsHiueP-74" target="96WcqZQYeLVcaAsHiueP-74" edge="1"><mxGeometry relative="1" as="geometry"/></mxCell><mxCell id="96WcqZQYeLVcaAsHiueP-81" value="OrderItem " style="shape=table;startSize=30;container=1;collapsible=1;childLayout=tableLayout;fixedRows=1;rowLines=0;fontStyle=1;align=center;resizeLast=1;" parent="1" vertex="1"><mxGeometry x="600" y="330" width="180" height="180" as="geometry"/></mxCell><mxCell id="96WcqZQYeLVcaAsHiueP-82" value="" style="shape=tableRow;horizontal=0;startSize=0;swimlaneHead=0;swimlaneBody=0;fillColor=none;collapsible=0;dropTarget=0;points=[[0,0.5],[1,0.5]];portConstraint=eastwest;top=0;left=0;right=0;bottom=1;" parent="96WcqZQYeLVcaAsHiueP-81" vertex="1"><mxGeometry y="30" width="180" height="30" as="geometry"/></mxCell><mxCell id="96WcqZQYeLVcaAsHiueP-83" value="PPK" style="shape=partialRectangle;connectable=0;fillColor=none;top=0;left=0;bottom=0;right=0;fontStyle=1;overflow=hidden;" parent="96WcqZQYeLVcaAsHiueP-82" vertex="1"><mxGeometry width="30" height="30" as="geometry"><mxRectangle width="30" height="30" as="alternateBounds"/></mxGeometry></mxCell><mxCell id="96WcqZQYeLVcaAsHiueP-84" value="OrderItemID" style="shape=partialRectangle;connectable=0;fillColor=none;top=0;left=0;bottom=0;right=0;align=left;spacingLeft=6;fontStyle=5;overflow=hidden;" parent="96WcqZQYeLVcaAsHiueP-82" vertex="1"><mxGeometry x="30" width="150" height="30" as="geometry"><mxRectangle width="150" height="30" as="alternateBounds"/></mxGeometry></mxCell><mxCell id="96WcqZQYeLVcaAsHiueP-85" value="" style="shape=tableRow;horizontal=0;startSize=0;swimlaneHead=0;swimlaneBody=0;fillColor=none;collapsible=0;dropTarget=0;points=[[0,0.5],[1,0.5]];portConstraint=eastwest;top=0;left=0;right=0;bottom=1;" parent="96WcqZQYeLVcaAsHiueP-81" vertex="1"><mxGeometry y="60" width="180" height="30" as="geometry"/></mxCell><mxCell id="96WcqZQYeLVcaAsHiueP-86" value="PPK" style="shape=partialRectangle;connectable=0;fillColor=none;top=0;left=0;bottom=0;right=0;fontStyle=1;overflow=hidden;" parent="96WcqZQYeLVcaAsHiueP-85" vertex="1"><mxGeometry width="30" height="30" as="geometry"><mxRectangle width="30" height="30" as="alternateBounds"/></mxGeometry></mxCell><mxCell id="96WcqZQYeLVcaAsHiueP-87" value="OrderID" style="shape=partialRectangle;connectable=0;fillColor=none;top=0;left=0;bottom=0;right=0;align=left;spacingLeft=6;fontStyle=5;overflow=hidden;" parent="96WcqZQYeLVcaAsHiueP-85" vertex="1"><mxGeometry x="30" width="150" height="30" as="geometry"><mxRectangle width="150" height="30" as="alternateBounds"/></mxGeometry></mxCell><mxCell id="96WcqZQYeLVcaAsHiueP-88" value="" style="shape=tableRow;horizontal=0;startSize=0;swimlaneHead=0;swimlaneBody=0;fillColor=none;collapsible=0;dropTarget=0;points=[[0,0.5],[1,0.5]];portConstraint=eastwest;top=0;left=0;right=0;bottom=1;" parent="96WcqZQYeLVcaAsHiueP-81" vertex="1"><mxGeometry y="90" width="180" height="30" as="geometry"/></mxCell><mxCell id="96WcqZQYeLVcaAsHiueP-89" value="PPK" style="shape=partialRectangle;connectable=0;fillColor=none;top=0;left=0;bottom=0;right=0;fontStyle=1;overflow=hidden;" parent="96WcqZQYeLVcaAsHiueP-88" vertex="1"><mxGeometry width="30" height="30" as="geometry"><mxRectangle width="30" height="30" as="alternateBounds"/></mxGeometry></mxCell><mxCell id="96WcqZQYeLVcaAsHiueP-90" value="ProductID" style="shape=partialRectangle;connectable=0;fillColor=none;top=0;left=0;bottom=0;right=0;align=left;spacingLeft=6;fontStyle=5;overflow=hidden;" parent="96WcqZQYeLVcaAsHiueP-88" vertex="1"><mxGeometry x="30" width="150" height="30" as="geometry"><mxRectangle width="150" height="30" as="alternateBounds"/></mxGeometry></mxCell><mxCell id="96WcqZQYeLVcaAsHiueP-91" value="" style="shape=tableRow;horizontal=0;startSize=0;swimlaneHead=0;swimlaneBody=0;fillColor=none;collapsible=0;dropTarget=0;points=[[0,0.5],[1,0.5]];portConstraint=eastwest;top=0;left=0;right=0;bottom=0;" parent="96WcqZQYeLVcaAsHiueP-81" vertex="1"><mxGeometry y="120" width="180" height="30" as="geometry"/></mxCell><mxCell id="96WcqZQYeLVcaAsHiueP-92" value="" style="shape=partialRectangle;connectable=0;fillColor=none;top=0;left=0;bottom=0;right=0;editable=1;overflow=hidden;" parent="96WcqZQYeLVcaAsHiueP-91" vertex="1"><mxGeometry width="30" height="30" as="geometry"><mxRectangle width="30" height="30" as="alternateBounds"/></mxGeometry></mxCell><mxCell id="96WcqZQYeLVcaAsHiueP-93" value="Quantity" style="shape=partialRectangle;connectable=0;fillColor=none;top=0;left=0;bottom=0;right=0;align=left;spacingLeft=6;overflow=hidden;" parent="96WcqZQYeLVcaAsHiueP-91" vertex="1"><mxGeometry x="30" width="150" height="30" as="geometry"><mxRectangle width="150" height="30" as="alternateBounds"/></mxGeometry></mxCell><mxCell id="96WcqZQYeLVcaAsHiueP-94" value="" style="shape=tableRow;horizontal=0;startSize=0;swimlaneHead=0;swimlaneBody=0;fillColor=none;collapsible=0;dropTarget=0;points=[[0,0.5],[1,0.5]];portConstraint=eastwest;top=0;left=0;right=0;bottom=0;" parent="96WcqZQYeLVcaAsHiueP-81" vertex="1"><mxGeometry y="150" width="180" height="30" as="geometry"/></mxCell><mxCell id="96WcqZQYeLVcaAsHiueP-95" value="" style="shape=partialRectangle;connectable=0;fillColor=none;top=0;left=0;bottom=0;right=0;editable=1;overflow=hidden;" parent="96WcqZQYeLVcaAsHiueP-94" vertex="1"><mxGeometry width="30" height="30" as="geometry"><mxRectangle width="30" height="30" as="alternateBounds"/></mxGeometry></mxCell><mxCell id="96WcqZQYeLVcaAsHiueP-96" value="Subtotal" style="shape=partialRectangle;connectable=0;fillColor=none;top=0;left=0;bottom=0;right=0;align=left;spacingLeft=6;overflow=hidden;" parent="96WcqZQYeLVcaAsHiueP-94" vertex="1"><mxGeometry x="30" width="150" height="30" as="geometry"><mxRectangle width="150" height="30" as="alternateBounds"/></mxGeometry></mxCell><mxCell id="96WcqZQYeLVcaAsHiueP-97" value="Order" style="shape=table;startSize=30;container=1;collapsible=1;childLayout=tableLayout;fixedRows=1;rowLines=0;fontStyle=1;align=center;resizeLast=1;" parent="1" vertex="1"><mxGeometry x="570" y="560" width="180" height="180" as="geometry"/></mxCell><mxCell id="96WcqZQYeLVcaAsHiueP-98" value="" style="shape=tableRow;horizontal=0;startSize=0;swimlaneHead=0;swimlaneBody=0;fillColor=none;collapsible=0;dropTarget=0;points=[[0,0.5],[1,0.5]];portConstraint=eastwest;top=0;left=0;right=0;bottom=1;" parent="96WcqZQYeLVcaAsHiueP-97" vertex="1"><mxGeometry y="30" width="180" height="30" as="geometry"/></mxCell><mxCell id="96WcqZQYeLVcaAsHiueP-99" value="PPK" style="shape=partialRectangle;connectable=0;fillColor=none;top=0;left=0;bottom=0;right=0;fontStyle=1;overflow=hidden;" parent="96WcqZQYeLVcaAsHiueP-98" vertex="1"><mxGeometry width="30" height="30" as="geometry"><mxRectangle width="30" height="30" as="alternateBounds"/></mxGeometry></mxCell><mxCell id="96WcqZQYeLVcaAsHiueP-100" value="OrderID" style="shape=partialRectangle;connectable=0;fillColor=none;top=0;left=0;bottom=0;right=0;align=left;spacingLeft=6;fontStyle=5;overflow=hidden;" parent="96WcqZQYeLVcaAsHiueP-98" vertex="1"><mxGeometry x="30" width="150" height="30" as="geometry"><mxRectangle width="150" height="30" as="alternateBounds"/></mxGeometry></mxCell><mxCell id="96WcqZQYeLVcaAsHiueP-101" value="" style="shape=tableRow;horizontal=0;startSize=0;swimlaneHead=0;swimlaneBody=0;fillColor=none;collapsible=0;dropTarget=0;points=[[0,0.5],[1,0.5]];portConstraint=eastwest;top=0;left=0;right=0;bottom=1;" parent="96WcqZQYeLVcaAsHiueP-97" vertex="1"><mxGeometry y="60" width="180" height="30" as="geometry"/></mxCell><mxCell id="96WcqZQYeLVcaAsHiueP-102" value="PPK" style="shape=partialRectangle;connectable=0;fillColor=none;top=0;left=0;bottom=0;right=0;fontStyle=1;overflow=hidden;" parent="96WcqZQYeLVcaAsHiueP-101" vertex="1"><mxGeometry width="30" height="30" as="geometry"><mxRectangle width="30" height="30" as="alternateBounds"/></mxGeometry></mxCell><mxCell id="96WcqZQYeLVcaAsHiueP-103" value="UserID" style="shape=partialRectangle;connectable=0;fillColor=none;top=0;left=0;bottom=0;right=0;align=left;spacingLeft=6;fontStyle=5;overflow=hidden;" parent="96WcqZQYeLVcaAsHiueP-101" vertex="1"><mxGeometry x="30" width="150" height="30" as="geometry"><mxRectangle width="150" height="30" as="alternateBounds"/></mxGeometry></mxCell><mxCell id="96WcqZQYeLVcaAsHiueP-104" value="" style="shape=tableRow;horizontal=0;startSize=0;swimlaneHead=0;swimlaneBody=0;fillColor=none;collapsible=0;dropTarget=0;points=[[0,0.5],[1,0.5]];portConstraint=eastwest;top=0;left=0;right=0;bottom=0;" parent="96WcqZQYeLVcaAsHiueP-97" vertex="1"><mxGeometry y="90" width="180" height="30" as="geometry"/></mxCell><mxCell id="96WcqZQYeLVcaAsHiueP-105" value="" style="shape=partialRectangle;connectable=0;fillColor=none;top=0;left=0;bottom=0;right=0;editable=1;overflow=hidden;" parent="96WcqZQYeLVcaAsHiueP-104" vertex="1"><mxGeometry width="30" height="30" as="geometry"><mxRectangle width="30" height="30" as="alternateBounds"/></mxGeometry></mxCell><mxCell id="96WcqZQYeLVcaAsHiueP-106" value="OrderDate" style="shape=partialRectangle;connectable=0;fillColor=none;top=0;left=0;bottom=0;right=0;align=left;spacingLeft=6;overflow=hidden;" parent="96WcqZQYeLVcaAsHiueP-104" vertex="1"><mxGeometry x="30" width="150" height="30" as="geometry"><mxRectangle width="150" height="30" as="alternateBounds"/></mxGeometry></mxCell><mxCell id="96WcqZQYeLVcaAsHiueP-107" value="" style="shape=tableRow;horizontal=0;startSize=0;swimlaneHead=0;swimlaneBody=0;fillColor=none;collapsible=0;dropTarget=0;points=[[0,0.5],[1,0.5]];portConstraint=eastwest;top=0;left=0;right=0;bottom=0;" parent="96WcqZQYeLVcaAsHiueP-97" vertex="1"><mxGeometry y="120" width="180" height="30" as="geometry"/></mxCell><mxCell id="96WcqZQYeLVcaAsHiueP-108" value="" style="shape=partialRectangle;connectable=0;fillColor=none;top=0;left=0;bottom=0;right=0;editable=1;overflow=hidden;" parent="96WcqZQYeLVcaAsHiueP-107" vertex="1"><mxGeometry width="30" height="30" as="geometry"><mxRectangle width="30" height="30" as="alternateBounds"/></mxGeometry></mxCell><mxCell id="96WcqZQYeLVcaAsHiueP-109" value="TotalAmount" style="shape=partialRectangle;connectable=0;fillColor=none;top=0;left=0;bottom=0;right=0;align=left;spacingLeft=6;overflow=hidden;" parent="96WcqZQYeLVcaAsHiueP-107" vertex="1"><mxGeometry x="30" width="150" height="30" as="geometry"><mxRectangle width="150" height="30" as="alternateBounds"/></mxGeometry></mxCell><mxCell id="96WcqZQYeLVcaAsHiueP-110" value="" style="shape=tableRow;horizontal=0;startSize=0;swimlaneHead=0;swimlaneBody=0;fillColor=none;collapsible=0;dropTarget=0;points=[[0,0.5],[1,0.5]];portConstraint=eastwest;top=0;left=0;right=0;bottom=0;" parent="96WcqZQYeLVcaAsHiueP-97" vertex="1"><mxGeometry y="150" width="180" height="30" as="geometry"/></mxCell><mxCell id="96WcqZQYeLVcaAsHiueP-111" value="" style="shape=partialRectangle;connectable=0;fillColor=none;top=0;left=0;bottom=0;right=0;editable=1;overflow=hidden;" parent="96WcqZQYeLVcaAsHiueP-110" vertex="1"><mxGeometry width="30" height="30" as="geometry"><mxRectangle width="30" height="30" as="alternateBounds"/></mxGeometry></mxCell><mxCell id="96WcqZQYeLVcaAsHiueP-112" value="Status" style="shape=partialRectangle;connectable=0;fillColor=none;top=0;left=0;bottom=0;right=0;align=left;spacingLeft=6;overflow=hidden;" parent="96WcqZQYeLVcaAsHiueP-110" vertex="1"><mxGeometry x="30" width="150" height="30" as="geometry"><mxRectangle width="150" height="30" as="alternateBounds"/></mxGeometry></mxCell><mxCell id="96WcqZQYeLVcaAsHiueP-113" value="Payment " style="shape=table;startSize=30;container=1;collapsible=1;childLayout=tableLayout;fixedRows=1;rowLines=0;fontStyle=1;align=center;resizeLast=1;" parent="1" vertex="1"><mxGeometry x="240" y="670" width="180" height="210" as="geometry"/></mxCell><mxCell id="96WcqZQYeLVcaAsHiueP-114" value="" style="shape=tableRow;horizontal=0;startSize=0;swimlaneHead=0;swimlaneBody=0;fillColor=none;collapsible=0;dropTarget=0;points=[[0,0.5],[1,0.5]];portConstraint=eastwest;top=0;left=0;right=0;bottom=1;" parent="96WcqZQYeLVcaAsHiueP-113" vertex="1"><mxGeometry y="30" width="180" height="30" as="geometry"/></mxCell><mxCell id="96WcqZQYeLVcaAsHiueP-115" value="PPK" style="shape=partialRectangle;connectable=0;fillColor=none;top=0;left=0;bottom=0;right=0;fontStyle=1;overflow=hidden;" parent="96WcqZQYeLVcaAsHiueP-114" vertex="1"><mxGeometry width="30" height="30" as="geometry"><mxRectangle width="30" height="30" as="alternateBounds"/></mxGeometry></mxCell><mxCell id="96WcqZQYeLVcaAsHiueP-116" value="PaymentID" style="shape=partialRectangle;connectable=0;fillColor=none;top=0;left=0;bottom=0;right=0;align=left;spacingLeft=6;fontStyle=5;overflow=hidden;" parent="96WcqZQYeLVcaAsHiueP-114" vertex="1"><mxGeometry x="30" width="150" height="30" as="geometry"><mxRectangle width="150" height="30" as="alternateBounds"/></mxGeometry></mxCell><mxCell id="96WcqZQYeLVcaAsHiueP-117" value="" style="shape=tableRow;horizontal=0;startSize=0;swimlaneHead=0;swimlaneBody=0;fillColor=none;collapsible=0;dropTarget=0;points=[[0,0.5],[1,0.5]];portConstraint=eastwest;top=0;left=0;right=0;bottom=1;" parent="96WcqZQYeLVcaAsHiueP-113" vertex="1"><mxGeometry y="60" width="180" height="30" as="geometry"/></mxCell><mxCell id="96WcqZQYeLVcaAsHiueP-118" value="PPK" style="shape=partialRectangle;connectable=0;fillColor=none;top=0;left=0;bottom=0;right=0;fontStyle=1;overflow=hidden;" parent="96WcqZQYeLVcaAsHiueP-117" vertex="1"><mxGeometry width="30" height="30" as="geometry"><mxRectangle width="30" height="30" as="alternateBounds"/></mxGeometry></mxCell><mxCell id="96WcqZQYeLVcaAsHiueP-119" value="OrderID" style="shape=partialRectangle;connectable=0;fillColor=none;top=0;left=0;bottom=0;right=0;align=left;spacingLeft=6;fontStyle=5;overflow=hidden;" parent="96WcqZQYeLVcaAsHiueP-117" vertex="1"><mxGeometry x="30" width="150" height="30" as="geometry"><mxRectangle width="150" height="30" as="alternateBounds"/></mxGeometry></mxCell><mxCell id="96WcqZQYeLVcaAsHiueP-120" value="" style="shape=tableRow;horizontal=0;startSize=0;swimlaneHead=0;swimlaneBody=0;fillColor=none;collapsible=0;dropTarget=0;points=[[0,0.5],[1,0.5]];portConstraint=eastwest;top=0;left=0;right=0;bottom=0;" parent="96WcqZQYeLVcaAsHiueP-113" vertex="1"><mxGeometry y="90" width="180" height="30" as="geometry"/></mxCell><mxCell id="96WcqZQYeLVcaAsHiueP-121" value="" style="shape=partialRectangle;connectable=0;fillColor=none;top=0;left=0;bottom=0;right=0;editable=1;overflow=hidden;" parent="96WcqZQYeLVcaAsHiueP-120" vertex="1"><mxGeometry width="30" height="30" as="geometry"><mxRectangle width="30" height="30" as="alternateBounds"/></mxGeometry></mxCell><mxCell id="96WcqZQYeLVcaAsHiueP-122" value="PaymentMethod" style="shape=partialRectangle;connectable=0;fillColor=none;top=0;left=0;bottom=0;right=0;align=left;spacingLeft=6;overflow=hidden;" parent="96WcqZQYeLVcaAsHiueP-120" vertex="1"><mxGeometry x="30" width="150" height="30" as="geometry"><mxRectangle width="150" height="30" as="alternateBounds"/></mxGeometry></mxCell><mxCell id="96WcqZQYeLVcaAsHiueP-123" value="" style="shape=tableRow;horizontal=0;startSize=0;swimlaneHead=0;swimlaneBody=0;fillColor=none;collapsible=0;dropTarget=0;points=[[0,0.5],[1,0.5]];portConstraint=eastwest;top=0;left=0;right=0;bottom=0;" parent="96WcqZQYeLVcaAsHiueP-113" vertex="1"><mxGeometry y="120" width="180" height="30" as="geometry"/></mxCell><mxCell id="96WcqZQYeLVcaAsHiueP-124" value="" style="shape=partialRectangle;connectable=0;fillColor=none;top=0;left=0;bottom=0;right=0;editable=1;overflow=hidden;" parent="96WcqZQYeLVcaAsHiueP-123" vertex="1"><mxGeometry width="30" height="30" as="geometry"><mxRectangle width="30" height="30" as="alternateBounds"/></mxGeometry></mxCell><mxCell id="96WcqZQYeLVcaAsHiueP-125" value="Amount" style="shape=partialRectangle;connectable=0;fillColor=none;top=0;left=0;bottom=0;right=0;align=left;spacingLeft=6;overflow=hidden;" parent="96WcqZQYeLVcaAsHiueP-123" vertex="1"><mxGeometry x="30" width="150" height="30" as="geometry"><mxRectangle width="150" height="30" as="alternateBounds"/></mxGeometry></mxCell><mxCell id="96WcqZQYeLVcaAsHiueP-126" value="" style="shape=tableRow;horizontal=0;startSize=0;swimlaneHead=0;swimlaneBody=0;fillColor=none;collapsible=0;dropTarget=0;points=[[0,0.5],[1,0.5]];portConstraint=eastwest;top=0;left=0;right=0;bottom=0;" parent="96WcqZQYeLVcaAsHiueP-113" vertex="1"><mxGeometry y="150" width="180" height="30" as="geometry"/></mxCell><mxCell id="96WcqZQYeLVcaAsHiueP-127" value="" style="shape=partialRectangle;connectable=0;fillColor=none;top=0;left=0;bottom=0;right=0;editable=1;overflow=hidden;" parent="96WcqZQYeLVcaAsHiueP-126" vertex="1"><mxGeometry width="30" height="30" as="geometry"><mxRectangle width="30" height="30" as="alternateBounds"/></mxGeometry></mxCell><mxCell id="96WcqZQYeLVcaAsHiueP-128" value="PaymentDate" style="shape=partialRectangle;connectable=0;fillColor=none;top=0;left=0;bottom=0;right=0;align=left;spacingLeft=6;overflow=hidden;" parent="96WcqZQYeLVcaAsHiueP-126" vertex="1"><mxGeometry x="30" width="150" height="30" as="geometry"><mxRectangle width="150" height="30" as="alternateBounds"/></mxGeometry></mxCell><mxCell id="96WcqZQYeLVcaAsHiueP-129" value="" style="shape=tableRow;horizontal=0;startSize=0;swimlaneHead=0;swimlaneBody=0;fillColor=none;collapsible=0;dropTarget=0;points=[[0,0.5],[1,0.5]];portConstraint=eastwest;top=0;left=0;right=0;bottom=0;" parent="96WcqZQYeLVcaAsHiueP-113" vertex="1"><mxGeometry y="180" width="180" height="30" as="geometry"/></mxCell><mxCell id="96WcqZQYeLVcaAsHiueP-130" value="" style="shape=partialRectangle;connectable=0;fillColor=none;top=0;left=0;bottom=0;right=0;editable=1;overflow=hidden;" parent="96WcqZQYeLVcaAsHiueP-129" vertex="1"><mxGeometry width="30" height="30" as="geometry"><mxRectangle width="30" height="30" as="alternateBounds"/></mxGeometry></mxCell><mxCell id="96WcqZQYeLVcaAsHiueP-131" value="Status" style="shape=partialRectangle;connectable=0;fillColor=none;top=0;left=0;bottom=0;right=0;align=left;spacingLeft=6;overflow=hidden;" parent="96WcqZQYeLVcaAsHiueP-129" vertex="1"><mxGeometry x="30" width="150" height="30" as="geometry"><mxRectangle width="150" height="30" as="alternateBounds"/></mxGeometry></mxCell><mxCell id="96WcqZQYeLVcaAsHiueP-132" style="edgeStyle=orthogonalEdgeStyle;rounded=0;orthogonalLoop=1;jettySize=auto;html=1;entryX=0.017;entryY=-0.041;entryDx=0;entryDy=0;entryPerimeter=0;" parent="1" target="96WcqZQYeLVcaAsHiueP-5" edge="1"><mxGeometry relative="1" as="geometry"><mxPoint x="180" y="100" as="sourcePoint"/><mxPoint x="300" y="85" as="targetPoint"/></mxGeometry></mxCell><mxCell id="96WcqZQYeLVcaAsHiueP-133" value="1..1" style="edgeLabel;html=1;align=center;verticalAlign=middle;resizable=0;points=[];" parent="96WcqZQYeLVcaAsHiueP-132" connectable="0" vertex="1"><mxGeometry x="-0.7714" y="1" relative="1" as="geometry"><mxPoint as="offset"/></mxGeometry></mxCell><mxCell id="96WcqZQYeLVcaAsHiueP-134" value="1..*" style="edgeLabel;html=1;align=center;verticalAlign=middle;resizable=0;points=[];" parent="96WcqZQYeLVcaAsHiueP-132" connectable="0" vertex="1"><mxGeometry x="0.6143" y="1" relative="1" as="geometry"><mxPoint as="offset"/></mxGeometry></mxCell><mxCell id="96WcqZQYeLVcaAsHiueP-135" value="orders" style="edgeLabel;html=1;align=center;verticalAlign=middle;resizable=0;points=[];" parent="96WcqZQYeLVcaAsHiueP-132" connectable="0" vertex="1"><mxGeometry x="-0.14" relative="1" as="geometry"><mxPoint as="offset"/></mxGeometry></mxCell><mxCell id="96WcqZQYeLVcaAsHiueP-136" style="edgeStyle=orthogonalEdgeStyle;rounded=0;orthogonalLoop=1;jettySize=auto;html=1;entryX=-0.008;entryY=-0.115;entryDx=0;entryDy=0;entryPerimeter=0;" parent="1" source="96WcqZQYeLVcaAsHiueP-5" target="96WcqZQYeLVcaAsHiueP-77" edge="1"><mxGeometry relative="1" as="geometry"><mxPoint x="510.0000000000002" y="130" as="sourcePoint"/><mxPoint x="660" y="70" as="targetPoint"/><Array as="points"><mxPoint x="699" y="110"/></Array></mxGeometry></mxCell><mxCell id="96WcqZQYeLVcaAsHiueP-137" value="1..*" style="edgeLabel;html=1;align=center;verticalAlign=middle;resizable=0;points=[];" parent="96WcqZQYeLVcaAsHiueP-136" connectable="0" vertex="1"><mxGeometry x="-0.7714" y="1" relative="1" as="geometry"><mxPoint x="9" as="offset"/></mxGeometry></mxCell><mxCell id="96WcqZQYeLVcaAsHiueP-138" value="1..1" style="edgeLabel;html=1;align=center;verticalAlign=middle;resizable=0;points=[];" parent="96WcqZQYeLVcaAsHiueP-136" connectable="0" vertex="1"><mxGeometry x="0.6143" y="1" relative="1" as="geometry"><mxPoint as="offset"/></mxGeometry></mxCell><mxCell id="96WcqZQYeLVcaAsHiueP-139" value="is of" style="edgeLabel;html=1;align=center;verticalAlign=middle;resizable=0;points=[];" parent="96WcqZQYeLVcaAsHiueP-136" connectable="0" vertex="1"><mxGeometry x="-0.14" relative="1" as="geometry"><mxPoint as="offset"/></mxGeometry></mxCell><mxCell id="96WcqZQYeLVcaAsHiueP-140" style="edgeStyle=orthogonalEdgeStyle;rounded=0;orthogonalLoop=1;jettySize=auto;html=1;entryX=0;entryY=0.5;entryDx=0;entryDy=0;exitX=0.992;exitY=-0.041;exitDx=0;exitDy=0;exitPerimeter=0;" parent="1" source="96WcqZQYeLVcaAsHiueP-17" target="96WcqZQYeLVcaAsHiueP-27" edge="1"><mxGeometry relative="1" as="geometry"><mxPoint x="390" y="320" as="sourcePoint"/><mxPoint x="578.56" y="319.99999999999994" as="targetPoint"/><Array as="points"><mxPoint x="510" y="219"/><mxPoint x="510" y="300"/><mxPoint x="579" y="300"/><mxPoint x="579" y="260"/></Array></mxGeometry></mxCell><mxCell id="96WcqZQYeLVcaAsHiueP-141" value="1..*" style="edgeLabel;html=1;align=center;verticalAlign=middle;resizable=0;points=[];" parent="96WcqZQYeLVcaAsHiueP-140" connectable="0" vertex="1"><mxGeometry x="-0.7714" y="1" relative="1" as="geometry"><mxPoint x="9" as="offset"/></mxGeometry></mxCell><mxCell id="96WcqZQYeLVcaAsHiueP-142" value="1..1" style="edgeLabel;html=1;align=center;verticalAlign=middle;resizable=0;points=[];" parent="96WcqZQYeLVcaAsHiueP-140" connectable="0" vertex="1"><mxGeometry x="0.6143" y="1" relative="1" as="geometry"><mxPoint as="offset"/></mxGeometry></mxCell><mxCell id="96WcqZQYeLVcaAsHiueP-143" value="is of" style="edgeLabel;html=1;align=center;verticalAlign=middle;resizable=0;points=[];" parent="96WcqZQYeLVcaAsHiueP-140" connectable="0" vertex="1"><mxGeometry x="-0.14" relative="1" as="geometry"><mxPoint as="offset"/></mxGeometry></mxCell><mxCell id="96WcqZQYeLVcaAsHiueP-144" style="edgeStyle=orthogonalEdgeStyle;rounded=0;orthogonalLoop=1;jettySize=auto;html=1;entryX=0;entryY=0.5;entryDx=0;entryDy=0;" parent="1" source="96WcqZQYeLVcaAsHiueP-20" target="96WcqZQYeLVcaAsHiueP-88" edge="1"><mxGeometry relative="1" as="geometry"><mxPoint x="371.44" y="333.45" as="sourcePoint"/><mxPoint x="570" y="329.99999999999994" as="targetPoint"/><Array as="points"><mxPoint x="410" y="334"/><mxPoint x="570" y="334"/><mxPoint x="570" y="435"/></Array></mxGeometry></mxCell><mxCell id="96WcqZQYeLVcaAsHiueP-145" value="1..1" style="edgeLabel;html=1;align=center;verticalAlign=middle;resizable=0;points=[];" parent="96WcqZQYeLVcaAsHiueP-144" connectable="0" vertex="1"><mxGeometry x="-0.7714" y="1" relative="1" as="geometry"><mxPoint x="9" as="offset"/></mxGeometry></mxCell><mxCell id="96WcqZQYeLVcaAsHiueP-146" value="1..1" style="edgeLabel;html=1;align=center;verticalAlign=middle;resizable=0;points=[];" parent="96WcqZQYeLVcaAsHiueP-144" connectable="0" vertex="1"><mxGeometry x="0.6143" y="1" relative="1" as="geometry"><mxPoint as="offset"/></mxGeometry></mxCell><mxCell id="96WcqZQYeLVcaAsHiueP-147" value="is a" style="edgeLabel;html=1;align=center;verticalAlign=middle;resizable=0;points=[];" parent="96WcqZQYeLVcaAsHiueP-144" connectable="0" vertex="1"><mxGeometry x="-0.14" relative="1" as="geometry"><mxPoint as="offset"/></mxGeometry></mxCell><mxCell id="96WcqZQYeLVcaAsHiueP-148" style="edgeStyle=orthogonalEdgeStyle;rounded=0;orthogonalLoop=1;jettySize=auto;html=1;entryX=0.986;entryY=-0.152;entryDx=0;entryDy=0;exitX=1;exitY=0.5;exitDx=0;exitDy=0;entryPerimeter=0;" parent="1" source="96WcqZQYeLVcaAsHiueP-98" target="96WcqZQYeLVcaAsHiueP-82" edge="1"><mxGeometry relative="1" as="geometry"><mxPoint x="900" y="460" as="sourcePoint"/><mxPoint x="1090" y="615.0000000000002" as="targetPoint"/><Array as="points"><mxPoint x="900" y="605"/><mxPoint x="900" y="355"/></Array></mxGeometry></mxCell><mxCell id="96WcqZQYeLVcaAsHiueP-149" value="1..*" style="edgeLabel;html=1;align=center;verticalAlign=middle;resizable=0;points=[];" parent="96WcqZQYeLVcaAsHiueP-148" connectable="0" vertex="1"><mxGeometry x="-0.7714" y="1" relative="1" as="geometry"><mxPoint x="9" as="offset"/></mxGeometry></mxCell><mxCell id="96WcqZQYeLVcaAsHiueP-150" value="1..*" style="edgeLabel;html=1;align=center;verticalAlign=middle;resizable=0;points=[];" parent="96WcqZQYeLVcaAsHiueP-148" connectable="0" vertex="1"><mxGeometry x="0.6143" y="1" relative="1" as="geometry"><mxPoint as="offset"/></mxGeometry></mxCell><mxCell id="96WcqZQYeLVcaAsHiueP-151" value="is a" style="edgeLabel;html=1;align=center;verticalAlign=middle;resizable=0;points=[];" parent="96WcqZQYeLVcaAsHiueP-148" connectable="0" vertex="1"><mxGeometry x="-0.14" relative="1" as="geometry"><mxPoint as="offset"/></mxGeometry></mxCell><mxCell id="96WcqZQYeLVcaAsHiueP-152" style="edgeStyle=orthogonalEdgeStyle;rounded=0;orthogonalLoop=1;jettySize=auto;html=1;exitX=0;exitY=0.5;exitDx=0;exitDy=0;entryX=1;entryY=0.5;entryDx=0;entryDy=0;" parent="1" source="96WcqZQYeLVcaAsHiueP-98" target="96WcqZQYeLVcaAsHiueP-117" edge="1"><mxGeometry relative="1" as="geometry"><mxPoint x="360" y="490" as="sourcePoint"/><mxPoint x="550" y="645.0000000000002" as="targetPoint"/><Array as="points"><mxPoint x="450" y="605"/><mxPoint x="450" y="745"/></Array></mxGeometry></mxCell><mxCell id="96WcqZQYeLVcaAsHiueP-153" value="1..1" style="edgeLabel;html=1;align=center;verticalAlign=middle;resizable=0;points=[];" parent="96WcqZQYeLVcaAsHiueP-152" connectable="0" vertex="1"><mxGeometry x="-0.7714" y="1" relative="1" as="geometry"><mxPoint x="9" as="offset"/></mxGeometry></mxCell><mxCell id="96WcqZQYeLVcaAsHiueP-154" value="1..1" style="edgeLabel;html=1;align=center;verticalAlign=middle;resizable=0;points=[];" parent="96WcqZQYeLVcaAsHiueP-152" connectable="0" vertex="1"><mxGeometry x="0.6143" y="1" relative="1" as="geometry"><mxPoint as="offset"/></mxGeometry></mxCell><mxCell id="96WcqZQYeLVcaAsHiueP-155" value="contains" style="edgeLabel;html=1;align=center;verticalAlign=middle;resizable=0;points=[];" parent="96WcqZQYeLVcaAsHiueP-152" connectable="0" vertex="1"><mxGeometry x="-0.14" relative="1" as="geometry"><mxPoint as="offset"/></mxGeometry></mxCell><mxCell id="96WcqZQYeLVcaAsHiueP-156" value="Inventory" style="shape=table;startSize=30;container=1;collapsible=1;childLayout=tableLayout;fixedRows=1;rowLines=0;fontStyle=1;align=center;resizeLast=1;" parent="1" vertex="1"><mxGeometry x="320" y="410" width="180" height="120" as="geometry"/></mxCell><mxCell id="96WcqZQYeLVcaAsHiueP-157" value="" style="shape=partialRectangle;collapsible=0;dropTarget=0;pointerEvents=0;fillColor=none;points=[[0,0.5],[1,0.5]];portConstraint=eastwest;top=0;left=0;right=0;bottom=1;" parent="96WcqZQYeLVcaAsHiueP-156" vertex="1"><mxGeometry y="30" width="180" height="30" as="geometry"/></mxCell><mxCell id="96WcqZQYeLVcaAsHiueP-158" value="PK" style="shape=partialRectangle;overflow=hidden;connectable=0;fillColor=none;top=0;left=0;bottom=0;right=0;fontStyle=1;" parent="96WcqZQYeLVcaAsHiueP-157" vertex="1"><mxGeometry width="30" height="30" as="geometry"><mxRectangle width="30" height="30" as="alternateBounds"/></mxGeometry></mxCell><mxCell id="96WcqZQYeLVcaAsHiueP-159" value="productID" style="shape=partialRectangle;overflow=hidden;connectable=0;fillColor=none;top=0;left=0;bottom=0;right=0;align=left;spacingLeft=6;fontStyle=5;" parent="96WcqZQYeLVcaAsHiueP-157" vertex="1"><mxGeometry x="30" width="150" height="30" as="geometry"><mxRectangle width="150" height="30" as="alternateBounds"/></mxGeometry></mxCell><mxCell id="96WcqZQYeLVcaAsHiueP-160" value="" style="shape=partialRectangle;collapsible=0;dropTarget=0;pointerEvents=0;fillColor=none;points=[[0,0.5],[1,0.5]];portConstraint=eastwest;top=0;left=0;right=0;bottom=0;" parent="96WcqZQYeLVcaAsHiueP-156" vertex="1"><mxGeometry y="60" width="180" height="30" as="geometry"/></mxCell><mxCell id="96WcqZQYeLVcaAsHiueP-161" value="" style="shape=partialRectangle;overflow=hidden;connectable=0;fillColor=none;top=0;left=0;bottom=0;right=0;" parent="96WcqZQYeLVcaAsHiueP-160" vertex="1"><mxGeometry width="30" height="30" as="geometry"><mxRectangle width="30" height="30" as="alternateBounds"/></mxGeometry></mxCell><mxCell id="96WcqZQYeLVcaAsHiueP-162" value="quantity" style="shape=partialRectangle;overflow=hidden;connectable=0;fillColor=none;top=0;left=0;bottom=0;right=0;align=left;spacingLeft=6;" parent="96WcqZQYeLVcaAsHiueP-160" vertex="1"><mxGeometry x="30" width="150" height="30" as="geometry"><mxRectangle width="150" height="30" as="alternateBounds"/></mxGeometry></mxCell><mxCell id="96WcqZQYeLVcaAsHiueP-163" value="" style="shape=partialRectangle;collapsible=0;dropTarget=0;pointerEvents=0;fillColor=none;points=[[0,0.5],[1,0.5]];portConstraint=eastwest;top=0;left=0;right=0;bottom=0;" parent="96WcqZQYeLVcaAsHiueP-156" vertex="1"><mxGeometry y="90" width="180" height="30" as="geometry"/></mxCell><mxCell id="96WcqZQYeLVcaAsHiueP-164" value="" style="shape=partialRectangle;overflow=hidden;connectable=0;fillColor=none;top=0;left=0;bottom=0;right=0;" parent="96WcqZQYeLVcaAsHiueP-163" vertex="1"><mxGeometry width="30" height="30" as="geometry"><mxRectangle width="30" height="30" as="alternateBounds"/></mxGeometry></mxCell><mxCell id="96WcqZQYeLVcaAsHiueP-165" value="" style="shape=partialRectangle;overflow=hidden;connectable=0;fillColor=none;top=0;left=0;bottom=0;right=0;align=left;spacingLeft=6;" parent="96WcqZQYeLVcaAsHiueP-163" vertex="1"><mxGeometry x="30" width="150" height="30" as="geometry"><mxRectangle width="150" height="30" as="alternateBounds"/></mxGeometry></mxCell><mxCell id="96WcqZQYeLVcaAsHiueP-166" style="edgeStyle=orthogonalEdgeStyle;rounded=0;orthogonalLoop=1;jettySize=auto;html=1;entryX=0;entryY=0.5;entryDx=0;entryDy=0;" parent="1" edge="1"><mxGeometry relative="1" as="geometry"><Array as="points"><mxPoint x="240" y="440"/><mxPoint x="240" y="270"/></Array><mxPoint x="320" y="440" as="sourcePoint"/><mxPoint x="320" y="270" as="targetPoint"/></mxGeometry></mxCell><mxCell id="96WcqZQYeLVcaAsHiueP-167" value="1.1" style="edgeLabel;html=1;align=center;verticalAlign=middle;resizable=0;points=[];" parent="96WcqZQYeLVcaAsHiueP-166" connectable="0" vertex="1"><mxGeometry x="-0.8594" y="1" relative="1" as="geometry"><mxPoint as="offset"/></mxGeometry></mxCell><mxCell id="96WcqZQYeLVcaAsHiueP-168" value="1.*" style="edgeLabel;html=1;align=center;verticalAlign=middle;resizable=0;points=[];" parent="96WcqZQYeLVcaAsHiueP-166" connectable="0" vertex="1"><mxGeometry x="0.8412" y="-2" relative="1" as="geometry"><mxPoint as="offset"/></mxGeometry></mxCell><mxCell id="96WcqZQYeLVcaAsHiueP-169" value="has" style="edgeLabel;html=1;align=center;verticalAlign=middle;resizable=0;points=[];" parent="96WcqZQYeLVcaAsHiueP-166" connectable="0" vertex="1"><mxGeometry x="0.017" y="-1" relative="1" as="geometry"><mxPoint as="offset"/></mxGeometry></mxCell><mxCell id="96WcqZQYeLVcaAsHiueP-170" value="Promotion" style="shape=table;startSize=30;container=1;collapsible=1;childLayout=tableLayout;fixedRows=1;rowLines=0;fontStyle=1;align=center;resizeLast=1;" parent="1" vertex="1"><mxGeometry x="10" y="480" width="180" height="240" as="geometry"/></mxCell><mxCell id="96WcqZQYeLVcaAsHiueP-171" value="" style="shape=partialRectangle;collapsible=0;dropTarget=0;pointerEvents=0;fillColor=none;points=[[0,0.5],[1,0.5]];portConstraint=eastwest;top=0;left=0;right=0;bottom=1;" parent="96WcqZQYeLVcaAsHiueP-170" vertex="1"><mxGeometry y="30" width="180" height="30" as="geometry"/></mxCell><mxCell id="96WcqZQYeLVcaAsHiueP-172" value="PK" style="shape=partialRectangle;overflow=hidden;connectable=0;fillColor=none;top=0;left=0;bottom=0;right=0;fontStyle=1;" parent="96WcqZQYeLVcaAsHiueP-171" vertex="1"><mxGeometry width="30" height="30" as="geometry"><mxRectangle width="30" height="30" as="alternateBounds"/></mxGeometry></mxCell><mxCell id="96WcqZQYeLVcaAsHiueP-173" value="promotionID" style="shape=partialRectangle;overflow=hidden;connectable=0;fillColor=none;top=0;left=0;bottom=0;right=0;align=left;spacingLeft=6;fontStyle=5;" parent="96WcqZQYeLVcaAsHiueP-171" vertex="1"><mxGeometry x="30" width="150" height="30" as="geometry"><mxRectangle width="150" height="30" as="alternateBounds"/></mxGeometry></mxCell><mxCell id="96WcqZQYeLVcaAsHiueP-174" value="" style="shape=partialRectangle;collapsible=0;dropTarget=0;pointerEvents=0;fillColor=none;points=[[0,0.5],[1,0.5]];portConstraint=eastwest;top=0;left=0;right=0;bottom=0;" parent="96WcqZQYeLVcaAsHiueP-170" vertex="1"><mxGeometry y="60" width="180" height="30" as="geometry"/></mxCell><mxCell id="96WcqZQYeLVcaAsHiueP-175" value="" style="shape=partialRectangle;overflow=hidden;connectable=0;fillColor=none;top=0;left=0;bottom=0;right=0;" parent="96WcqZQYeLVcaAsHiueP-174" vertex="1"><mxGeometry width="30" height="30" as="geometry"><mxRectangle width="30" height="30" as="alternateBounds"/></mxGeometry></mxCell><mxCell id="96WcqZQYeLVcaAsHiueP-176" value="name" style="shape=partialRectangle;overflow=hidden;connectable=0;fillColor=none;top=0;left=0;bottom=0;right=0;align=left;spacingLeft=6;" parent="96WcqZQYeLVcaAsHiueP-174" vertex="1"><mxGeometry x="30" width="150" height="30" as="geometry"><mxRectangle width="150" height="30" as="alternateBounds"/></mxGeometry></mxCell><mxCell id="96WcqZQYeLVcaAsHiueP-177" value="" style="shape=partialRectangle;collapsible=0;dropTarget=0;pointerEvents=0;fillColor=none;points=[[0,0.5],[1,0.5]];portConstraint=eastwest;top=0;left=0;right=0;bottom=0;" parent="96WcqZQYeLVcaAsHiueP-170" vertex="1"><mxGeometry y="90" width="180" height="30" as="geometry"/></mxCell><mxCell id="96WcqZQYeLVcaAsHiueP-178" value="" style="shape=partialRectangle;overflow=hidden;connectable=0;fillColor=none;top=0;left=0;bottom=0;right=0;" parent="96WcqZQYeLVcaAsHiueP-177" vertex="1"><mxGeometry width="30" height="30" as="geometry"><mxRectangle width="30" height="30" as="alternateBounds"/></mxGeometry></mxCell><mxCell id="96WcqZQYeLVcaAsHiueP-179" value="description" style="shape=partialRectangle;overflow=hidden;connectable=0;fillColor=none;top=0;left=0;bottom=0;right=0;align=left;spacingLeft=6;" parent="96WcqZQYeLVcaAsHiueP-177" vertex="1"><mxGeometry x="30" width="150" height="30" as="geometry"><mxRectangle width="150" height="30" as="alternateBounds"/></mxGeometry></mxCell><mxCell id="96WcqZQYeLVcaAsHiueP-180" style="shape=partialRectangle;collapsible=0;dropTarget=0;pointerEvents=0;fillColor=none;points=[[0,0.5],[1,0.5]];portConstraint=eastwest;top=0;left=0;right=0;bottom=0;" parent="96WcqZQYeLVcaAsHiueP-170" vertex="1"><mxGeometry y="120" width="180" height="30" as="geometry"/></mxCell><mxCell id="96WcqZQYeLVcaAsHiueP-181" style="shape=partialRectangle;overflow=hidden;connectable=0;fillColor=none;top=0;left=0;bottom=0;right=0;" parent="96WcqZQYeLVcaAsHiueP-180" vertex="1"><mxGeometry width="30" height="30" as="geometry"><mxRectangle width="30" height="30" as="alternateBounds"/></mxGeometry></mxCell><mxCell id="96WcqZQYeLVcaAsHiueP-182" value="discountType" style="shape=partialRectangle;overflow=hidden;connectable=0;fillColor=none;top=0;left=0;bottom=0;right=0;align=left;spacingLeft=6;" parent="96WcqZQYeLVcaAsHiueP-180" vertex="1"><mxGeometry x="30" width="150" height="30" as="geometry"><mxRectangle width="150" height="30" as="alternateBounds"/></mxGeometry></mxCell><mxCell id="96WcqZQYeLVcaAsHiueP-183" style="shape=partialRectangle;collapsible=0;dropTarget=0;pointerEvents=0;fillColor=none;points=[[0,0.5],[1,0.5]];portConstraint=eastwest;top=0;left=0;right=0;bottom=0;" parent="96WcqZQYeLVcaAsHiueP-170" vertex="1"><mxGeometry y="150" width="180" height="30" as="geometry"/></mxCell><mxCell id="96WcqZQYeLVcaAsHiueP-184" style="shape=partialRectangle;overflow=hidden;connectable=0;fillColor=none;top=0;left=0;bottom=0;right=0;" parent="96WcqZQYeLVcaAsHiueP-183" vertex="1"><mxGeometry width="30" height="30" as="geometry"><mxRectangle width="30" height="30" as="alternateBounds"/></mxGeometry></mxCell><mxCell id="96WcqZQYeLVcaAsHiueP-185" value="discountValue" style="shape=partialRectangle;overflow=hidden;connectable=0;fillColor=none;top=0;left=0;bottom=0;right=0;align=left;spacingLeft=6;" parent="96WcqZQYeLVcaAsHiueP-183" vertex="1"><mxGeometry x="30" width="150" height="30" as="geometry"><mxRectangle width="150" height="30" as="alternateBounds"/></mxGeometry></mxCell><mxCell id="96WcqZQYeLVcaAsHiueP-186" style="shape=partialRectangle;collapsible=0;dropTarget=0;pointerEvents=0;fillColor=none;points=[[0,0.5],[1,0.5]];portConstraint=eastwest;top=0;left=0;right=0;bottom=0;" parent="96WcqZQYeLVcaAsHiueP-170" vertex="1"><mxGeometry y="180" width="180" height="30" as="geometry"/></mxCell><mxCell id="96WcqZQYeLVcaAsHiueP-187" style="shape=partialRectangle;overflow=hidden;connectable=0;fillColor=none;top=0;left=0;bottom=0;right=0;" parent="96WcqZQYeLVcaAsHiueP-186" vertex="1"><mxGeometry width="30" height="30" as="geometry"><mxRectangle width="30" height="30" as="alternateBounds"/></mxGeometry></mxCell><mxCell id="96WcqZQYeLVcaAsHiueP-188" value="startDate" style="shape=partialRectangle;overflow=hidden;connectable=0;fillColor=none;top=0;left=0;bottom=0;right=0;align=left;spacingLeft=6;" parent="96WcqZQYeLVcaAsHiueP-186" vertex="1"><mxGeometry x="30" width="150" height="30" as="geometry"><mxRectangle width="150" height="30" as="alternateBounds"/></mxGeometry></mxCell><mxCell id="96WcqZQYeLVcaAsHiueP-189" style="shape=partialRectangle;collapsible=0;dropTarget=0;pointerEvents=0;fillColor=none;points=[[0,0.5],[1,0.5]];portConstraint=eastwest;top=0;left=0;right=0;bottom=0;" parent="96WcqZQYeLVcaAsHiueP-170" vertex="1"><mxGeometry y="210" width="180" height="30" as="geometry"/></mxCell><mxCell id="96WcqZQYeLVcaAsHiueP-190" style="shape=partialRectangle;overflow=hidden;connectable=0;fillColor=none;top=0;left=0;bottom=0;right=0;" parent="96WcqZQYeLVcaAsHiueP-189" vertex="1"><mxGeometry width="30" height="30" as="geometry"><mxRectangle width="30" height="30" as="alternateBounds"/></mxGeometry></mxCell><mxCell id="96WcqZQYeLVcaAsHiueP-191" value="endDate" style="shape=partialRectangle;overflow=hidden;connectable=0;fillColor=none;top=0;left=0;bottom=0;right=0;align=left;spacingLeft=6;" parent="96WcqZQYeLVcaAsHiueP-189" vertex="1"><mxGeometry x="30" width="150" height="30" as="geometry"><mxRectangle width="150" height="30" as="alternateBounds"/></mxGeometry></mxCell><mxCell id="96WcqZQYeLVcaAsHiueP-192" value="Shipping" style="shape=table;startSize=30;container=1;collapsible=1;childLayout=tableLayout;fixedRows=1;rowLines=0;fontStyle=1;align=center;resizeLast=1;" parent="1" vertex="1"><mxGeometry x="560" y="860" width="180" height="150" as="geometry"/></mxCell><mxCell id="96WcqZQYeLVcaAsHiueP-193" value="" style="shape=tableRow;horizontal=0;startSize=0;swimlaneHead=0;swimlaneBody=0;fillColor=none;collapsible=0;dropTarget=0;points=[[0,0.5],[1,0.5]];portConstraint=eastwest;top=0;left=0;right=0;bottom=1;" parent="96WcqZQYeLVcaAsHiueP-192" vertex="1"><mxGeometry y="30" width="180" height="30" as="geometry"/></mxCell><mxCell id="96WcqZQYeLVcaAsHiueP-194" value="PPK" style="shape=partialRectangle;connectable=0;fillColor=none;top=0;left=0;bottom=0;right=0;fontStyle=1;overflow=hidden;" parent="96WcqZQYeLVcaAsHiueP-193" vertex="1"><mxGeometry width="30" height="30" as="geometry"><mxRectangle width="30" height="30" as="alternateBounds"/></mxGeometry></mxCell><mxCell id="96WcqZQYeLVcaAsHiueP-195" value="shippingID" style="shape=partialRectangle;connectable=0;fillColor=none;top=0;left=0;bottom=0;right=0;align=left;spacingLeft=6;fontStyle=5;overflow=hidden;" parent="96WcqZQYeLVcaAsHiueP-193" vertex="1"><mxGeometry x="30" width="150" height="30" as="geometry"><mxRectangle width="150" height="30" as="alternateBounds"/></mxGeometry></mxCell><mxCell id="96WcqZQYeLVcaAsHiueP-196" value="" style="shape=tableRow;horizontal=0;startSize=0;swimlaneHead=0;swimlaneBody=0;fillColor=none;collapsible=0;dropTarget=0;points=[[0,0.5],[1,0.5]];portConstraint=eastwest;top=0;left=0;right=0;bottom=1;" parent="96WcqZQYeLVcaAsHiueP-192" vertex="1"><mxGeometry y="60" width="180" height="30" as="geometry"/></mxCell><mxCell id="96WcqZQYeLVcaAsHiueP-197" value="PPK" style="shape=partialRectangle;connectable=0;fillColor=none;top=0;left=0;bottom=0;right=0;fontStyle=1;overflow=hidden;" parent="96WcqZQYeLVcaAsHiueP-196" vertex="1"><mxGeometry width="30" height="30" as="geometry"><mxRectangle width="30" height="30" as="alternateBounds"/></mxGeometry></mxCell><mxCell id="96WcqZQYeLVcaAsHiueP-198" value="orderID" style="shape=partialRectangle;connectable=0;fillColor=none;top=0;left=0;bottom=0;right=0;align=left;spacingLeft=6;fontStyle=5;overflow=hidden;" parent="96WcqZQYeLVcaAsHiueP-196" vertex="1"><mxGeometry x="30" width="150" height="30" as="geometry"><mxRectangle width="150" height="30" as="alternateBounds"/></mxGeometry></mxCell><mxCell id="96WcqZQYeLVcaAsHiueP-199" value="" style="shape=tableRow;horizontal=0;startSize=0;swimlaneHead=0;swimlaneBody=0;fillColor=none;collapsible=0;dropTarget=0;points=[[0,0.5],[1,0.5]];portConstraint=eastwest;top=0;left=0;right=0;bottom=0;" parent="96WcqZQYeLVcaAsHiueP-192" vertex="1"><mxGeometry y="90" width="180" height="30" as="geometry"/></mxCell><mxCell id="96WcqZQYeLVcaAsHiueP-200" value="" style="shape=partialRectangle;connectable=0;fillColor=none;top=0;left=0;bottom=0;right=0;editable=1;overflow=hidden;" parent="96WcqZQYeLVcaAsHiueP-199" vertex="1"><mxGeometry width="30" height="30" as="geometry"><mxRectangle width="30" height="30" as="alternateBounds"/></mxGeometry></mxCell><mxCell id="96WcqZQYeLVcaAsHiueP-201" value="shippingMethod" style="shape=partialRectangle;connectable=0;fillColor=none;top=0;left=0;bottom=0;right=0;align=left;spacingLeft=6;overflow=hidden;" parent="96WcqZQYeLVcaAsHiueP-199" vertex="1"><mxGeometry x="30" width="150" height="30" as="geometry"><mxRectangle width="150" height="30" as="alternateBounds"/></mxGeometry></mxCell><mxCell id="96WcqZQYeLVcaAsHiueP-202" value="" style="shape=tableRow;horizontal=0;startSize=0;swimlaneHead=0;swimlaneBody=0;fillColor=none;collapsible=0;dropTarget=0;points=[[0,0.5],[1,0.5]];portConstraint=eastwest;top=0;left=0;right=0;bottom=0;" parent="96WcqZQYeLVcaAsHiueP-192" vertex="1"><mxGeometry y="120" width="180" height="30" as="geometry"/></mxCell><mxCell id="96WcqZQYeLVcaAsHiueP-203" value="" style="shape=partialRectangle;connectable=0;fillColor=none;top=0;left=0;bottom=0;right=0;editable=1;overflow=hidden;" parent="96WcqZQYeLVcaAsHiueP-202" vertex="1"><mxGeometry width="30" height="30" as="geometry"><mxRectangle width="30" height="30" as="alternateBounds"/></mxGeometry></mxCell><mxCell id="96WcqZQYeLVcaAsHiueP-204" value="shippingCost" style="shape=partialRectangle;connectable=0;fillColor=none;top=0;left=0;bottom=0;right=0;align=left;spacingLeft=6;overflow=hidden;" parent="96WcqZQYeLVcaAsHiueP-202" vertex="1"><mxGeometry x="30" width="150" height="30" as="geometry"><mxRectangle width="150" height="30" as="alternateBounds"/></mxGeometry></mxCell><mxCell id="96WcqZQYeLVcaAsHiueP-205" value="Product review" style="shape=table;startSize=30;container=1;collapsible=1;childLayout=tableLayout;fixedRows=1;rowLines=0;fontStyle=1;align=center;resizeLast=1;" parent="1" vertex="1"><mxGeometry x="870" y="150" width="180" height="180" as="geometry"/></mxCell><mxCell id="96WcqZQYeLVcaAsHiueP-206" value="" style="shape=tableRow;horizontal=0;startSize=0;swimlaneHead=0;swimlaneBody=0;fillColor=none;collapsible=0;dropTarget=0;points=[[0,0.5],[1,0.5]];portConstraint=eastwest;top=0;left=0;right=0;bottom=1;" parent="96WcqZQYeLVcaAsHiueP-205" vertex="1"><mxGeometry y="30" width="180" height="30" as="geometry"/></mxCell><mxCell id="96WcqZQYeLVcaAsHiueP-207" value="PPK" style="shape=partialRectangle;connectable=0;fillColor=none;top=0;left=0;bottom=0;right=0;fontStyle=1;overflow=hidden;" parent="96WcqZQYeLVcaAsHiueP-206" vertex="1"><mxGeometry width="30" height="30" as="geometry"><mxRectangle width="30" height="30" as="alternateBounds"/></mxGeometry></mxCell><mxCell id="96WcqZQYeLVcaAsHiueP-208" value="reviewID" style="shape=partialRectangle;connectable=0;fillColor=none;top=0;left=0;bottom=0;right=0;align=left;spacingLeft=6;fontStyle=5;overflow=hidden;" parent="96WcqZQYeLVcaAsHiueP-206" vertex="1"><mxGeometry x="30" width="150" height="30" as="geometry"><mxRectangle width="150" height="30" as="alternateBounds"/></mxGeometry></mxCell><mxCell id="96WcqZQYeLVcaAsHiueP-209" value="" style="shape=tableRow;horizontal=0;startSize=0;swimlaneHead=0;swimlaneBody=0;fillColor=none;collapsible=0;dropTarget=0;points=[[0,0.5],[1,0.5]];portConstraint=eastwest;top=0;left=0;right=0;bottom=1;" parent="96WcqZQYeLVcaAsHiueP-205" vertex="1"><mxGeometry y="60" width="180" height="30" as="geometry"/></mxCell><mxCell id="96WcqZQYeLVcaAsHiueP-210" value="PPK" style="shape=partialRectangle;connectable=0;fillColor=none;top=0;left=0;bottom=0;right=0;fontStyle=1;overflow=hidden;" parent="96WcqZQYeLVcaAsHiueP-209" vertex="1"><mxGeometry width="30" height="30" as="geometry"><mxRectangle width="30" height="30" as="alternateBounds"/></mxGeometry></mxCell><mxCell id="96WcqZQYeLVcaAsHiueP-211" value="username" style="shape=partialRectangle;connectable=0;fillColor=none;top=0;left=0;bottom=0;right=0;align=left;spacingLeft=6;fontStyle=5;overflow=hidden;" parent="96WcqZQYeLVcaAsHiueP-209" vertex="1"><mxGeometry x="30" width="150" height="30" as="geometry"><mxRectangle width="150" height="30" as="alternateBounds"/></mxGeometry></mxCell><mxCell id="96WcqZQYeLVcaAsHiueP-212" value="" style="shape=tableRow;horizontal=0;startSize=0;swimlaneHead=0;swimlaneBody=0;fillColor=none;collapsible=0;dropTarget=0;points=[[0,0.5],[1,0.5]];portConstraint=eastwest;top=0;left=0;right=0;bottom=1;" parent="96WcqZQYeLVcaAsHiueP-205" vertex="1"><mxGeometry y="90" width="180" height="30" as="geometry"/></mxCell><mxCell id="96WcqZQYeLVcaAsHiueP-213" value="PPK" style="shape=partialRectangle;connectable=0;fillColor=none;top=0;left=0;bottom=0;right=0;fontStyle=1;overflow=hidden;" parent="96WcqZQYeLVcaAsHiueP-212" vertex="1"><mxGeometry width="30" height="30" as="geometry"><mxRectangle width="30" height="30" as="alternateBounds"/></mxGeometry></mxCell><mxCell id="96WcqZQYeLVcaAsHiueP-214" value="productID" style="shape=partialRectangle;connectable=0;fillColor=none;top=0;left=0;bottom=0;right=0;align=left;spacingLeft=6;fontStyle=5;overflow=hidden;" parent="96WcqZQYeLVcaAsHiueP-212" vertex="1"><mxGeometry x="30" width="150" height="30" as="geometry"><mxRectangle width="150" height="30" as="alternateBounds"/></mxGeometry></mxCell><mxCell id="96WcqZQYeLVcaAsHiueP-215" value="" style="shape=tableRow;horizontal=0;startSize=0;swimlaneHead=0;swimlaneBody=0;fillColor=none;collapsible=0;dropTarget=0;points=[[0,0.5],[1,0.5]];portConstraint=eastwest;top=0;left=0;right=0;bottom=0;" parent="96WcqZQYeLVcaAsHiueP-205" vertex="1"><mxGeometry y="120" width="180" height="30" as="geometry"/></mxCell><mxCell id="96WcqZQYeLVcaAsHiueP-216" value="" style="shape=partialRectangle;connectable=0;fillColor=none;top=0;left=0;bottom=0;right=0;editable=1;overflow=hidden;" parent="96WcqZQYeLVcaAsHiueP-215" vertex="1"><mxGeometry width="30" height="30" as="geometry"><mxRectangle width="30" height="30" as="alternateBounds"/></mxGeometry></mxCell><mxCell id="96WcqZQYeLVcaAsHiueP-217" value="rating" style="shape=partialRectangle;connectable=0;fillColor=none;top=0;left=0;bottom=0;right=0;align=left;spacingLeft=6;overflow=hidden;" parent="96WcqZQYeLVcaAsHiueP-215" vertex="1"><mxGeometry x="30" width="150" height="30" as="geometry"><mxRectangle width="150" height="30" as="alternateBounds"/></mxGeometry></mxCell><mxCell id="96WcqZQYeLVcaAsHiueP-218" value="" style="shape=tableRow;horizontal=0;startSize=0;swimlaneHead=0;swimlaneBody=0;fillColor=none;collapsible=0;dropTarget=0;points=[[0,0.5],[1,0.5]];portConstraint=eastwest;top=0;left=0;right=0;bottom=0;" parent="96WcqZQYeLVcaAsHiueP-205" vertex="1"><mxGeometry y="150" width="180" height="30" as="geometry"/></mxCell><mxCell id="96WcqZQYeLVcaAsHiueP-219" value="" style="shape=partialRectangle;connectable=0;fillColor=none;top=0;left=0;bottom=0;right=0;editable=1;overflow=hidden;" parent="96WcqZQYeLVcaAsHiueP-218" vertex="1"><mxGeometry width="30" height="30" as="geometry"><mxRectangle width="30" height="30" as="alternateBounds"/></mxGeometry></mxCell><mxCell id="96WcqZQYeLVcaAsHiueP-220" value="review text" style="shape=partialRectangle;connectable=0;fillColor=none;top=0;left=0;bottom=0;right=0;align=left;spacingLeft=6;overflow=hidden;" parent="96WcqZQYeLVcaAsHiueP-218" vertex="1"><mxGeometry x="30" width="150" height="30" as="geometry"><mxRectangle width="150" height="30" as="alternateBounds"/></mxGeometry></mxCell><mxCell id="96WcqZQYeLVcaAsHiueP-221" style="edgeStyle=orthogonalEdgeStyle;rounded=0;orthogonalLoop=1;jettySize=auto;html=1;entryX=0.559;entryY=-0.003;entryDx=0;entryDy=0;entryPerimeter=0;" parent="1" source="96WcqZQYeLVcaAsHiueP-97" target="96WcqZQYeLVcaAsHiueP-192" edge="1"><mxGeometry relative="1" as="geometry"/></mxCell><mxCell id="96WcqZQYeLVcaAsHiueP-222" value="is shipped" style="edgeLabel;html=1;align=center;verticalAlign=middle;resizable=0;points=[];" parent="96WcqZQYeLVcaAsHiueP-221" vertex="1" connectable="0"><mxGeometry x="-0.1211" y="-2" relative="1" as="geometry"><mxPoint as="offset"/></mxGeometry></mxCell><mxCell id="96WcqZQYeLVcaAsHiueP-223" value="1..1" style="edgeLabel;html=1;align=center;verticalAlign=middle;resizable=0;points=[];" parent="96WcqZQYeLVcaAsHiueP-221" vertex="1" connectable="0"><mxGeometry x="-0.7869" relative="1" as="geometry"><mxPoint as="offset"/></mxGeometry></mxCell><mxCell id="96WcqZQYeLVcaAsHiueP-224" value="1..1" style="edgeLabel;html=1;align=center;verticalAlign=middle;resizable=0;points=[];" parent="96WcqZQYeLVcaAsHiueP-221" vertex="1" connectable="0"><mxGeometry x="0.6879" y="2" relative="1" as="geometry"><mxPoint as="offset"/></mxGeometry></mxCell><mxCell id="96WcqZQYeLVcaAsHiueP-225" style="edgeStyle=orthogonalEdgeStyle;rounded=0;orthogonalLoop=1;jettySize=auto;html=1;entryX=0.014;entryY=-0.187;entryDx=0;entryDy=0;entryPerimeter=0;" parent="1" source="96WcqZQYeLVcaAsHiueP-11" target="96WcqZQYeLVcaAsHiueP-206" edge="1"><mxGeometry relative="1" as="geometry"/></mxCell><mxCell id="96WcqZQYeLVcaAsHiueP-226" value="optionally has" style="edgeLabel;html=1;align=center;verticalAlign=middle;resizable=0;points=[];" parent="96WcqZQYeLVcaAsHiueP-225" vertex="1" connectable="0"><mxGeometry x="-0.1295" y="2" relative="1" as="geometry"><mxPoint as="offset"/></mxGeometry></mxCell><mxCell id="96WcqZQYeLVcaAsHiueP-227" value="1..1" style="edgeLabel;html=1;align=center;verticalAlign=middle;resizable=0;points=[];" parent="96WcqZQYeLVcaAsHiueP-225" vertex="1" connectable="0"><mxGeometry x="-0.9282" y="2" relative="1" as="geometry"><mxPoint as="offset"/></mxGeometry></mxCell><mxCell id="96WcqZQYeLVcaAsHiueP-228" value="1..*&amp;nbsp;" style="edgeLabel;html=1;align=center;verticalAlign=middle;resizable=0;points=[];" parent="96WcqZQYeLVcaAsHiueP-225" vertex="1" connectable="0"><mxGeometry x="0.8278" y="-1" relative="1" as="geometry"><mxPoint as="offset"/></mxGeometry></mxCell><mxCell id="96WcqZQYeLVcaAsHiueP-229" style="edgeStyle=orthogonalEdgeStyle;rounded=0;orthogonalLoop=1;jettySize=auto;html=1;entryX=1;entryY=0.5;entryDx=0;entryDy=0;" parent="1" source="96WcqZQYeLVcaAsHiueP-8" target="96WcqZQYeLVcaAsHiueP-171" edge="1"><mxGeometry relative="1" as="geometry"><Array as="points"><mxPoint x="220" y="145"/><mxPoint x="220" y="525"/></Array></mxGeometry></mxCell><mxCell id="96WcqZQYeLVcaAsHiueP-230" value="1.1&amp;nbsp;" style="edgeLabel;html=1;align=center;verticalAlign=middle;resizable=0;points=[];" parent="96WcqZQYeLVcaAsHiueP-229" vertex="1" connectable="0"><mxGeometry x="0.902" y="-1" relative="1" as="geometry"><mxPoint as="offset"/></mxGeometry></mxCell><mxCell id="96WcqZQYeLVcaAsHiueP-231" value="1..*&amp;nbsp;" style="edgeLabel;html=1;align=center;verticalAlign=middle;resizable=0;points=[];" parent="96WcqZQYeLVcaAsHiueP-229" vertex="1" connectable="0"><mxGeometry x="-0.9412" relative="1" as="geometry"><mxPoint as="offset"/></mxGeometry></mxCell><mxCell id="96WcqZQYeLVcaAsHiueP-232" value="optionally&lt;div&gt;has a&lt;/div&gt;" style="edgeLabel;html=1;align=center;verticalAlign=middle;resizable=0;points=[];" parent="96WcqZQYeLVcaAsHiueP-229" vertex="1" connectable="0"><mxGeometry x="-0.0996" y="-2" relative="1" as="geometry"><mxPoint y="-35" as="offset"/></mxGeometry></mxCell></root></mxGraphModel></diagram><diagram id="WRqj-YukG2w2WHwQjatN" name="UserOrder 1NF"><mxGraphModel dx="1548" dy="2146" grid="1" gridSize="10" guides="1" tooltips="1" connect="1" arrows="1" fold="1" page="1" pageScale="1" pageWidth="850" pageHeight="1100" math="0" shadow="0"><root><mxCell id="0"/><mxCell id="1" parent="0"/><mxCell id="gmOSEBCUns5vsZuV79MG-1" value="" style="shape=table;html=1;whiteSpace=wrap;startSize=0;container=1;collapsible=0;childLayout=tableLayout;" vertex="1" parent="1"><mxGeometry y="60" width="1020" height="180" as="geometry"/></mxCell><mxCell id="gmOSEBCUns5vsZuV79MG-2" style="shape=tableRow;horizontal=0;startSize=0;swimlaneHead=0;swimlaneBody=0;top=0;left=0;bottom=0;right=0;collapsible=0;dropTarget=0;fillColor=none;points=[[0,0.5],[1,0.5]];portConstraint=eastwest;" vertex="1" parent="gmOSEBCUns5vsZuV79MG-1"><mxGeometry width="1020" height="40" as="geometry"/></mxCell><mxCell id="gmOSEBCUns5vsZuV79MG-3" value="&lt;font style=&quot;font-size: 16px;&quot;&gt;ProductID&lt;/font&gt;" style="shape=partialRectangle;html=1;whiteSpace=wrap;connectable=0;fillColor=none;top=0;left=0;bottom=0;right=0;overflow=hidden;" vertex="1" parent="gmOSEBCUns5vsZuV79MG-2"><mxGeometry width="86" height="40" as="geometry"><mxRectangle width="86" height="40" as="alternateBounds"/></mxGeometry></mxCell><mxCell id="gmOSEBCUns5vsZuV79MG-4" value="&lt;span style=&quot;font-size: 16px;&quot;&gt;BrandID&lt;/span&gt;" style="shape=partialRectangle;html=1;whiteSpace=wrap;connectable=0;fillColor=none;top=0;left=0;bottom=0;right=0;overflow=hidden;" vertex="1" parent="gmOSEBCUns5vsZuV79MG-2"><mxGeometry x="86" width="89" height="40" as="geometry"><mxRectangle width="89" height="40" as="alternateBounds"/></mxGeometry></mxCell><mxCell id="gmOSEBCUns5vsZuV79MG-5" value="&lt;span style=&quot;font-size: 16px;&quot;&gt;CategoryID&lt;/span&gt;" style="shape=partialRectangle;html=1;whiteSpace=wrap;connectable=0;fillColor=none;top=0;left=0;bottom=0;right=0;overflow=hidden;" vertex="1" parent="gmOSEBCUns5vsZuV79MG-2"><mxGeometry x="175" width="84" height="40" as="geometry"><mxRectangle width="84" height="40" as="alternateBounds"/></mxGeometry></mxCell><mxCell id="gmOSEBCUns5vsZuV79MG-6" value="&lt;span style=&quot;font-size: 16px;&quot;&gt;Name&lt;/span&gt;" style="shape=partialRectangle;html=1;whiteSpace=wrap;connectable=0;fillColor=none;top=0;left=0;bottom=0;right=0;overflow=hidden;" vertex="1" parent="gmOSEBCUns5vsZuV79MG-2"><mxGeometry x="259" width="86" height="40" as="geometry"><mxRectangle width="86" height="40" as="alternateBounds"/></mxGeometry></mxCell><mxCell id="gmOSEBCUns5vsZuV79MG-7" value="&lt;span style=&quot;font-size: 16px;&quot;&gt;Description&lt;/span&gt;" style="shape=partialRectangle;html=1;whiteSpace=wrap;connectable=0;fillColor=none;top=0;left=0;bottom=0;right=0;overflow=hidden;" vertex="1" parent="gmOSEBCUns5vsZuV79MG-2"><mxGeometry x="345" width="85" height="40" as="geometry"><mxRectangle width="85" height="40" as="alternateBounds"/></mxGeometry></mxCell><mxCell id="gmOSEBCUns5vsZuV79MG-8" value="&lt;p style=&quot;line-height: 85%;&quot;&gt;&lt;span style=&quot;font-size: 16px;&quot;&gt;Price&lt;/span&gt;&lt;br&gt;&lt;/p&gt;" style="shape=partialRectangle;html=1;whiteSpace=wrap;connectable=0;fillColor=none;top=0;left=0;bottom=0;right=0;overflow=hidden;" vertex="1" parent="gmOSEBCUns5vsZuV79MG-2"><mxGeometry x="430" width="87" height="40" as="geometry"><mxRectangle width="87" height="40" as="alternateBounds"/></mxGeometry></mxCell><mxCell id="gmOSEBCUns5vsZuV79MG-9" value="StockQuantity" style="shape=partialRectangle;html=1;whiteSpace=wrap;connectable=0;fillColor=none;top=0;left=0;bottom=0;right=0;overflow=hidden;" vertex="1" parent="gmOSEBCUns5vsZuV79MG-2"><mxGeometry x="517" width="86" height="40" as="geometry"><mxRectangle width="86" height="40" as="alternateBounds"/></mxGeometry></mxCell><mxCell id="gmOSEBCUns5vsZuV79MG-10" value="BrandName" style="shape=partialRectangle;html=1;whiteSpace=wrap;connectable=0;fillColor=none;top=0;left=0;bottom=0;right=0;overflow=hidden;" vertex="1" parent="gmOSEBCUns5vsZuV79MG-2"><mxGeometry x="603" width="87" height="40" as="geometry"><mxRectangle width="87" height="40" as="alternateBounds"/></mxGeometry></mxCell><mxCell id="gmOSEBCUns5vsZuV79MG-11" value="BrandDescription" style="shape=partialRectangle;html=1;whiteSpace=wrap;connectable=0;fillColor=none;top=0;left=0;bottom=0;right=0;overflow=hidden;" vertex="1" parent="gmOSEBCUns5vsZuV79MG-2"><mxGeometry x="690" width="120" height="40" as="geometry"><mxRectangle width="120" height="40" as="alternateBounds"/></mxGeometry></mxCell><mxCell id="gmOSEBCUns5vsZuV79MG-12" value="CategoryName" style="shape=partialRectangle;html=1;whiteSpace=wrap;connectable=0;fillColor=none;top=0;left=0;bottom=0;right=0;overflow=hidden;" vertex="1" parent="gmOSEBCUns5vsZuV79MG-2"><mxGeometry x="810" width="110" height="40" as="geometry"><mxRectangle width="110" height="40" as="alternateBounds"/></mxGeometry></mxCell><mxCell id="gmOSEBCUns5vsZuV79MG-13" value="CategoryDescriprion" style="shape=partialRectangle;html=1;whiteSpace=wrap;connectable=0;fillColor=none;top=0;left=0;bottom=0;right=0;overflow=hidden;" vertex="1" parent="gmOSEBCUns5vsZuV79MG-2"><mxGeometry x="920" width="100" height="40" as="geometry"><mxRectangle width="100" height="40" as="alternateBounds"/></mxGeometry></mxCell><mxCell id="gmOSEBCUns5vsZuV79MG-14" value="" style="shape=tableRow;horizontal=0;startSize=0;swimlaneHead=0;swimlaneBody=0;top=0;left=0;bottom=0;right=0;collapsible=0;dropTarget=0;fillColor=none;points=[[0,0.5],[1,0.5]];portConstraint=eastwest;" vertex="1" parent="gmOSEBCUns5vsZuV79MG-1"><mxGeometry y="40" width="1020" height="40" as="geometry"/></mxCell><mxCell id="gmOSEBCUns5vsZuV79MG-15" value="1232921980" style="shape=partialRectangle;html=1;whiteSpace=wrap;connectable=0;fillColor=none;top=0;left=0;bottom=0;right=0;overflow=hidden;" vertex="1" parent="gmOSEBCUns5vsZuV79MG-14"><mxGeometry width="86" height="40" as="geometry"><mxRectangle width="86" height="40" as="alternateBounds"/></mxGeometry></mxCell><mxCell id="gmOSEBCUns5vsZuV79MG-16" value="17676" style="shape=partialRectangle;html=1;whiteSpace=wrap;connectable=0;fillColor=none;top=0;left=0;bottom=0;right=0;overflow=hidden;" vertex="1" parent="gmOSEBCUns5vsZuV79MG-14"><mxGeometry x="86" width="89" height="40" as="geometry"><mxRectangle width="89" height="40" as="alternateBounds"/></mxGeometry></mxCell><mxCell id="gmOSEBCUns5vsZuV79MG-17" value="10" style="shape=partialRectangle;html=1;whiteSpace=wrap;connectable=0;fillColor=none;top=0;left=0;bottom=0;right=0;overflow=hidden;" vertex="1" parent="gmOSEBCUns5vsZuV79MG-14"><mxGeometry x="175" width="84" height="40" as="geometry"><mxRectangle width="84" height="40" as="alternateBounds"/></mxGeometry></mxCell><mxCell id="gmOSEBCUns5vsZuV79MG-18" value="LG OLED 44´TV" style="shape=partialRectangle;html=1;whiteSpace=wrap;connectable=0;fillColor=none;top=0;left=0;bottom=0;right=0;overflow=hidden;" vertex="1" parent="gmOSEBCUns5vsZuV79MG-14"><mxGeometry x="259" width="86" height="40" as="geometry"><mxRectangle width="86" height="40" as="alternateBounds"/></mxGeometry></mxCell><mxCell id="gmOSEBCUns5vsZuV79MG-19" value="4K HDR TV&amp;nbsp;" style="shape=partialRectangle;html=1;whiteSpace=wrap;connectable=0;fillColor=none;top=0;left=0;bottom=0;right=0;overflow=hidden;" vertex="1" parent="gmOSEBCUns5vsZuV79MG-14"><mxGeometry x="345" width="85" height="40" as="geometry"><mxRectangle width="85" height="40" as="alternateBounds"/></mxGeometry></mxCell><mxCell id="gmOSEBCUns5vsZuV79MG-20" value="11000" style="shape=partialRectangle;html=1;whiteSpace=wrap;connectable=0;fillColor=none;top=0;left=0;bottom=0;right=0;overflow=hidden;" vertex="1" parent="gmOSEBCUns5vsZuV79MG-14"><mxGeometry x="430" width="87" height="40" as="geometry"><mxRectangle width="87" height="40" as="alternateBounds"/></mxGeometry></mxCell><mxCell id="gmOSEBCUns5vsZuV79MG-21" value="8" style="shape=partialRectangle;html=1;whiteSpace=wrap;connectable=0;fillColor=none;top=0;left=0;bottom=0;right=0;overflow=hidden;" vertex="1" parent="gmOSEBCUns5vsZuV79MG-14"><mxGeometry x="517" width="86" height="40" as="geometry"><mxRectangle width="86" height="40" as="alternateBounds"/></mxGeometry></mxCell><mxCell id="gmOSEBCUns5vsZuV79MG-22" value="LG" style="shape=partialRectangle;html=1;whiteSpace=wrap;connectable=0;fillColor=none;top=0;left=0;bottom=0;right=0;overflow=hidden;" vertex="1" parent="gmOSEBCUns5vsZuV79MG-14"><mxGeometry x="603" width="87" height="40" as="geometry"><mxRectangle width="87" height="40" as="alternateBounds"/></mxGeometry></mxCell><mxCell id="gmOSEBCUns5vsZuV79MG-23" value="Brand that makes TVs" style="shape=partialRectangle;html=1;whiteSpace=wrap;connectable=0;fillColor=none;top=0;left=0;bottom=0;right=0;overflow=hidden;" vertex="1" parent="gmOSEBCUns5vsZuV79MG-14"><mxGeometry x="690" width="120" height="40" as="geometry"><mxRectangle width="120" height="40" as="alternateBounds"/></mxGeometry></mxCell><mxCell id="gmOSEBCUns5vsZuV79MG-24" value="TVs" style="shape=partialRectangle;html=1;whiteSpace=wrap;connectable=0;fillColor=none;top=0;left=0;bottom=0;right=0;overflow=hidden;" vertex="1" parent="gmOSEBCUns5vsZuV79MG-14"><mxGeometry x="810" width="110" height="40" as="geometry"><mxRectangle width="110" height="40" as="alternateBounds"/></mxGeometry></mxCell><mxCell id="gmOSEBCUns5vsZuV79MG-25" value="Everything concerning TVs" style="shape=partialRectangle;html=1;whiteSpace=wrap;connectable=0;fillColor=none;top=0;left=0;bottom=0;right=0;overflow=hidden;" vertex="1" parent="gmOSEBCUns5vsZuV79MG-14"><mxGeometry x="920" width="100" height="40" as="geometry"><mxRectangle width="100" height="40" as="alternateBounds"/></mxGeometry></mxCell><mxCell id="gmOSEBCUns5vsZuV79MG-26" value="" style="shape=tableRow;horizontal=0;startSize=0;swimlaneHead=0;swimlaneBody=0;top=0;left=0;bottom=0;right=0;collapsible=0;dropTarget=0;fillColor=none;points=[[0,0.5],[1,0.5]];portConstraint=eastwest;" vertex="1" parent="gmOSEBCUns5vsZuV79MG-1"><mxGeometry y="80" width="1020" height="50" as="geometry"/></mxCell><mxCell id="gmOSEBCUns5vsZuV79MG-27" value="1293292322" style="shape=partialRectangle;html=1;whiteSpace=wrap;connectable=0;fillColor=none;top=0;left=0;bottom=0;right=0;overflow=hidden;" vertex="1" parent="gmOSEBCUns5vsZuV79MG-26"><mxGeometry width="86" height="50" as="geometry"><mxRectangle width="86" height="50" as="alternateBounds"/></mxGeometry></mxCell><mxCell id="gmOSEBCUns5vsZuV79MG-28" value="12321" style="shape=partialRectangle;html=1;whiteSpace=wrap;connectable=0;fillColor=none;top=0;left=0;bottom=0;right=0;overflow=hidden;" vertex="1" parent="gmOSEBCUns5vsZuV79MG-26"><mxGeometry x="86" width="89" height="50" as="geometry"><mxRectangle width="89" height="50" as="alternateBounds"/></mxGeometry></mxCell><mxCell id="gmOSEBCUns5vsZuV79MG-29" value="8" style="shape=partialRectangle;html=1;whiteSpace=wrap;connectable=0;fillColor=none;top=0;left=0;bottom=0;right=0;overflow=hidden;pointerEvents=1;" vertex="1" parent="gmOSEBCUns5vsZuV79MG-26"><mxGeometry x="175" width="84" height="50" as="geometry"><mxRectangle width="84" height="50" as="alternateBounds"/></mxGeometry></mxCell><mxCell id="gmOSEBCUns5vsZuV79MG-30" value="JBL bluetooth speeker" style="shape=partialRectangle;html=1;whiteSpace=wrap;connectable=0;fillColor=none;top=0;left=0;bottom=0;right=0;overflow=hidden;pointerEvents=1;" vertex="1" parent="gmOSEBCUns5vsZuV79MG-26"><mxGeometry x="259" width="86" height="50" as="geometry"><mxRectangle width="86" height="50" as="alternateBounds"/></mxGeometry></mxCell><mxCell id="gmOSEBCUns5vsZuV79MG-31" value="USB-C charging cable included" style="shape=partialRectangle;html=1;whiteSpace=wrap;connectable=0;fillColor=none;top=0;left=0;bottom=0;right=0;overflow=hidden;pointerEvents=1;" vertex="1" parent="gmOSEBCUns5vsZuV79MG-26"><mxGeometry x="345" width="85" height="50" as="geometry"><mxRectangle width="85" height="50" as="alternateBounds"/></mxGeometry></mxCell><mxCell id="gmOSEBCUns5vsZuV79MG-32" value="2000" style="shape=partialRectangle;html=1;whiteSpace=wrap;connectable=0;fillColor=none;top=0;left=0;bottom=0;right=0;overflow=hidden;pointerEvents=1;" vertex="1" parent="gmOSEBCUns5vsZuV79MG-26"><mxGeometry x="430" width="87" height="50" as="geometry"><mxRectangle width="87" height="50" as="alternateBounds"/></mxGeometry></mxCell><mxCell id="gmOSEBCUns5vsZuV79MG-33" value="25" style="shape=partialRectangle;html=1;whiteSpace=wrap;connectable=0;fillColor=none;top=0;left=0;bottom=0;right=0;overflow=hidden;pointerEvents=1;" vertex="1" parent="gmOSEBCUns5vsZuV79MG-26"><mxGeometry x="517" width="86" height="50" as="geometry"><mxRectangle width="86" height="50" as="alternateBounds"/></mxGeometry></mxCell><mxCell id="gmOSEBCUns5vsZuV79MG-34" value="JBL" style="shape=partialRectangle;html=1;whiteSpace=wrap;connectable=0;fillColor=none;top=0;left=0;bottom=0;right=0;overflow=hidden;pointerEvents=1;" vertex="1" parent="gmOSEBCUns5vsZuV79MG-26"><mxGeometry x="603" width="87" height="50" as="geometry"><mxRectangle width="87" height="50" as="alternateBounds"/></mxGeometry></mxCell><mxCell id="gmOSEBCUns5vsZuV79MG-35" value="Brand that makes Speakers" style="shape=partialRectangle;html=1;whiteSpace=wrap;connectable=0;fillColor=none;top=0;left=0;bottom=0;right=0;overflow=hidden;pointerEvents=1;" vertex="1" parent="gmOSEBCUns5vsZuV79MG-26"><mxGeometry x="690" width="120" height="50" as="geometry"><mxRectangle width="120" height="50" as="alternateBounds"/></mxGeometry></mxCell><mxCell id="gmOSEBCUns5vsZuV79MG-36" value="Speakers" style="shape=partialRectangle;html=1;whiteSpace=wrap;connectable=0;fillColor=none;top=0;left=0;bottom=0;right=0;overflow=hidden;pointerEvents=1;" vertex="1" parent="gmOSEBCUns5vsZuV79MG-26"><mxGeometry x="810" width="110" height="50" as="geometry"><mxRectangle width="110" height="50" as="alternateBounds"/></mxGeometry></mxCell><mxCell id="gmOSEBCUns5vsZuV79MG-37" value="Everything concerning Speakers" style="shape=partialRectangle;html=1;whiteSpace=wrap;connectable=0;fillColor=none;top=0;left=0;bottom=0;right=0;overflow=hidden;pointerEvents=1;" vertex="1" parent="gmOSEBCUns5vsZuV79MG-26"><mxGeometry x="920" width="100" height="50" as="geometry"><mxRectangle width="100" height="50" as="alternateBounds"/></mxGeometry></mxCell><mxCell id="gmOSEBCUns5vsZuV79MG-38" style="shape=tableRow;horizontal=0;startSize=0;swimlaneHead=0;swimlaneBody=0;top=0;left=0;bottom=0;right=0;collapsible=0;dropTarget=0;fillColor=none;points=[[0,0.5],[1,0.5]];portConstraint=eastwest;" vertex="1" parent="gmOSEBCUns5vsZuV79MG-1"><mxGeometry y="130" width="1020" height="50" as="geometry"/></mxCell><mxCell id="gmOSEBCUns5vsZuV79MG-39" value="3243243233" style="shape=partialRectangle;html=1;whiteSpace=wrap;connectable=0;fillColor=none;top=0;left=0;bottom=0;right=0;overflow=hidden;" vertex="1" parent="gmOSEBCUns5vsZuV79MG-38"><mxGeometry width="86" height="50" as="geometry"><mxRectangle width="86" height="50" as="alternateBounds"/></mxGeometry></mxCell><mxCell id="gmOSEBCUns5vsZuV79MG-40" value="34124" style="shape=partialRectangle;html=1;whiteSpace=wrap;connectable=0;fillColor=none;top=0;left=0;bottom=0;right=0;overflow=hidden;" vertex="1" parent="gmOSEBCUns5vsZuV79MG-38"><mxGeometry x="86" width="89" height="50" as="geometry"><mxRectangle width="89" height="50" as="alternateBounds"/></mxGeometry></mxCell><mxCell id="gmOSEBCUns5vsZuV79MG-41" value="2" style="shape=partialRectangle;html=1;whiteSpace=wrap;connectable=0;fillColor=none;top=0;left=0;bottom=0;right=0;overflow=hidden;pointerEvents=1;" vertex="1" parent="gmOSEBCUns5vsZuV79MG-38"><mxGeometry x="175" width="84" height="50" as="geometry"><mxRectangle width="84" height="50" as="alternateBounds"/></mxGeometry></mxCell><mxCell id="gmOSEBCUns5vsZuV79MG-42" value="iPhone 15 Pro Max" style="shape=partialRectangle;html=1;whiteSpace=wrap;connectable=0;fillColor=none;top=0;left=0;bottom=0;right=0;overflow=hidden;pointerEvents=1;" vertex="1" parent="gmOSEBCUns5vsZuV79MG-38"><mxGeometry x="259" width="86" height="50" as="geometry"><mxRectangle width="86" height="50" as="alternateBounds"/></mxGeometry></mxCell><mxCell id="gmOSEBCUns5vsZuV79MG-43" value="Cool smart phone" style="shape=partialRectangle;html=1;whiteSpace=wrap;connectable=0;fillColor=none;top=0;left=0;bottom=0;right=0;overflow=hidden;pointerEvents=1;" vertex="1" parent="gmOSEBCUns5vsZuV79MG-38"><mxGeometry x="345" width="85" height="50" as="geometry"><mxRectangle width="85" height="50" as="alternateBounds"/></mxGeometry></mxCell><mxCell id="gmOSEBCUns5vsZuV79MG-44" value="12000" style="shape=partialRectangle;html=1;whiteSpace=wrap;connectable=0;fillColor=none;top=0;left=0;bottom=0;right=0;overflow=hidden;pointerEvents=1;" vertex="1" parent="gmOSEBCUns5vsZuV79MG-38"><mxGeometry x="430" width="87" height="50" as="geometry"><mxRectangle width="87" height="50" as="alternateBounds"/></mxGeometry></mxCell><mxCell id="gmOSEBCUns5vsZuV79MG-45" value="16" style="shape=partialRectangle;html=1;whiteSpace=wrap;connectable=0;fillColor=none;top=0;left=0;bottom=0;right=0;overflow=hidden;pointerEvents=1;" vertex="1" parent="gmOSEBCUns5vsZuV79MG-38"><mxGeometry x="517" width="86" height="50" as="geometry"><mxRectangle width="86" height="50" as="alternateBounds"/></mxGeometry></mxCell><mxCell id="gmOSEBCUns5vsZuV79MG-46" value="Apple" style="shape=partialRectangle;html=1;whiteSpace=wrap;connectable=0;fillColor=none;top=0;left=0;bottom=0;right=0;overflow=hidden;pointerEvents=1;" vertex="1" parent="gmOSEBCUns5vsZuV79MG-38"><mxGeometry x="603" width="87" height="50" as="geometry"><mxRectangle width="87" height="50" as="alternateBounds"/></mxGeometry></mxCell><mxCell id="gmOSEBCUns5vsZuV79MG-47" value="Brand that makes smart phones" style="shape=partialRectangle;html=1;whiteSpace=wrap;connectable=0;fillColor=none;top=0;left=0;bottom=0;right=0;overflow=hidden;pointerEvents=1;" vertex="1" parent="gmOSEBCUns5vsZuV79MG-38"><mxGeometry x="690" width="120" height="50" as="geometry"><mxRectangle width="120" height="50" as="alternateBounds"/></mxGeometry></mxCell><mxCell id="gmOSEBCUns5vsZuV79MG-48" value="Smart phones" style="shape=partialRectangle;html=1;whiteSpace=wrap;connectable=0;fillColor=none;top=0;left=0;bottom=0;right=0;overflow=hidden;pointerEvents=1;" vertex="1" parent="gmOSEBCUns5vsZuV79MG-38"><mxGeometry x="810" width="110" height="50" as="geometry"><mxRectangle width="110" height="50" as="alternateBounds"/></mxGeometry></mxCell><mxCell id="gmOSEBCUns5vsZuV79MG-49" value="Everything concerning Smart phones" style="shape=partialRectangle;html=1;whiteSpace=wrap;connectable=0;fillColor=none;top=0;left=0;bottom=0;right=0;overflow=hidden;pointerEvents=1;" vertex="1" parent="gmOSEBCUns5vsZuV79MG-38"><mxGeometry x="920" width="100" height="50" as="geometry"><mxRectangle width="100" height="50" as="alternateBounds"/></mxGeometry></mxCell><mxCell id="gmOSEBCUns5vsZuV79MG-50" style="edgeStyle=orthogonalEdgeStyle;rounded=0;orthogonalLoop=1;jettySize=auto;html=1;exitX=1;exitY=0.5;exitDx=0;exitDy=0;fontSize=16;" edge="1" parent="gmOSEBCUns5vsZuV79MG-1" source="gmOSEBCUns5vsZuV79MG-14" target="gmOSEBCUns5vsZuV79MG-14"><mxGeometry relative="1" as="geometry"/></mxCell><mxCell id="gmOSEBCUns5vsZuV79MG-51" value="UserOrder 1NF (Combination of Product, Brand and Category)" style="text;strokeColor=none;fillColor=none;html=1;fontSize=24;fontStyle=1;verticalAlign=middle;align=center;" vertex="1" parent="1"><mxGeometry x="410" y="-20" width="100" height="90" as="geometry"/></mxCell><mxCell id="gmOSEBCUns5vsZuV79MG-52" value="&lt;h1&gt;Functional dependancies:&lt;/h1&gt;&lt;p style=&quot;margin: 0cm 32.55pt 0.7pt 17.8pt; line-height: 15.6933px; font-family: Calibri, sans-serif; text-align: justify; text-indent: -0.5pt; font-size: 21px;&quot; class=&quot;MsoNormal&quot;&gt;&lt;font style=&quot;font-size: 21px;&quot;&gt;&lt;span style=&quot;line-height: 17.12px; font-family: &amp;quot;Times New Roman&amp;quot;, serif;&quot; lang=&quot;EN&quot;&gt;FD1: ProductID, BrandID, CategoryID → Name, Description, Price, StockQuantity&lt;/span&gt;&lt;/font&gt;&lt;/p&gt;&lt;p style=&quot;margin: 0cm 32.55pt 0.7pt 17.8pt; line-height: 15.6933px; font-family: Calibri, sans-serif; text-align: justify; text-indent: -0.5pt; font-size: 21px;&quot; class=&quot;MsoNormal&quot;&gt;&lt;font style=&quot;font-size: 21px;&quot;&gt;&lt;span style=&quot;line-height: 17.12px; font-family: &amp;quot;Times New Roman&amp;quot;, serif;&quot; lang=&quot;EN&quot;&gt;FD2: BrandID → BrandName, BrandDescription&lt;/span&gt;&lt;/font&gt;&lt;/p&gt;&lt;p style=&quot;margin: 0cm 32.55pt 0.7pt 17.8pt; line-height: 15.6933px; font-family: Calibri, sans-serif; text-align: justify; text-indent: -0.5pt; font-size: 21px;&quot; class=&quot;MsoNormal&quot;&gt;&lt;font style=&quot;font-size: 21px;&quot;&gt;&lt;span style=&quot;line-height: 17.12px; font-family: &amp;quot;Times New Roman&amp;quot;, serif;&quot; lang=&quot;EN&quot;&gt;FD3: CategoryID → CategoryName, CategoryDescription&lt;/span&gt;&lt;/font&gt;&lt;/p&gt;&lt;p style=&quot;margin: 0cm 32.55pt 0.7pt 17.8pt; line-height: 15.6933px; font-family: Calibri, sans-serif; text-align: justify; text-indent: -0.5pt; font-size: 21px;&quot; class=&quot;MsoNormal&quot;&gt;&lt;font style=&quot;font-size: 21px;&quot;&gt;&lt;span style=&quot;line-height: 17.12px; font-family: &amp;quot;Times New Roman&amp;quot;, serif;&quot; lang=&quot;EN&quot;&gt;&lt;span style=&quot;text-indent: -0.666667px;&quot;&gt;FD4: ProductID → StockQuantity&lt;/span&gt;&lt;/span&gt;&lt;/font&gt;&lt;/p&gt;&lt;br&gt;&lt;p style=&quot;margin: 0cm 32.55pt 0.7pt 17.8pt; line-height: 15.6933px; font-family: Calibri, sans-serif; text-align: justify; text-indent: -0.5pt; font-size: 21px;&quot; class=&quot;MsoNormal&quot;&gt;&lt;font style=&quot;font-size: 21px;&quot;&gt;&lt;span style=&quot;line-height: 17.12px; font-family: &amp;quot;Times New Roman&amp;quot;, serif;&quot; lang=&quot;EN&quot;&gt;&amp;nbsp;&lt;/span&gt;&lt;/font&gt;&lt;/p&gt;" style="text;html=1;strokeColor=none;fillColor=none;spacing=5;spacingTop=-20;whiteSpace=wrap;overflow=hidden;rounded=0;labelBackgroundColor=#2a2a2a;fontSize=16;" vertex="1" parent="1"><mxGeometry x="60" y="310" width="750" height="210" as="geometry"/></mxCell></root></mxGraphModel></diagram><diagram id="R5g_blg6hP4BcomDUNOm" name="UserOrder 2NF, 3NF and BCNF"><mxGraphModel dx="2580" dy="1743" grid="1" gridSize="10" guides="1" tooltips="1" connect="1" arrows="1" fold="1" page="1" pageScale="1" pageWidth="850" pageHeight="1100" math="0" shadow="0"><root><mxCell id="0"/><mxCell id="1" parent="0"/><mxCell id="5d2zbgUXZoIJqQ45c83p-1" value="" style="shape=table;html=1;whiteSpace=wrap;startSize=0;container=1;collapsible=0;childLayout=tableLayout;" vertex="1" parent="1"><mxGeometry x="10" y="160" width="630" height="250" as="geometry"/></mxCell><mxCell id="5d2zbgUXZoIJqQ45c83p-2" style="shape=tableRow;horizontal=0;startSize=0;swimlaneHead=0;swimlaneBody=0;top=0;left=0;bottom=0;right=0;collapsible=0;dropTarget=0;fillColor=none;points=[[0,0.5],[1,0.5]];portConstraint=eastwest;" vertex="1" parent="5d2zbgUXZoIJqQ45c83p-1"><mxGeometry width="630" height="55" as="geometry"/></mxCell><mxCell id="5d2zbgUXZoIJqQ45c83p-3" value="&lt;font style=&quot;font-size: 16px;&quot;&gt;ProductID&lt;/font&gt;" style="shape=partialRectangle;html=1;whiteSpace=wrap;connectable=0;fillColor=none;top=0;left=0;bottom=0;right=0;overflow=hidden;" vertex="1" parent="5d2zbgUXZoIJqQ45c83p-2"><mxGeometry width="90" height="55" as="geometry"><mxRectangle width="90" height="55" as="alternateBounds"/></mxGeometry></mxCell><mxCell id="5d2zbgUXZoIJqQ45c83p-4" value="&lt;span style=&quot;font-size: 16px;&quot;&gt;BrandID&lt;/span&gt;" style="shape=partialRectangle;html=1;whiteSpace=wrap;connectable=0;fillColor=none;top=0;left=0;bottom=0;right=0;overflow=hidden;" vertex="1" parent="5d2zbgUXZoIJqQ45c83p-2"><mxGeometry x="90" width="94" height="55" as="geometry"><mxRectangle width="94" height="55" as="alternateBounds"/></mxGeometry></mxCell><mxCell id="5d2zbgUXZoIJqQ45c83p-5" value="&lt;span style=&quot;font-size: 16px;&quot;&gt;CategoryID&lt;/span&gt;" style="shape=partialRectangle;html=1;whiteSpace=wrap;connectable=0;fillColor=none;top=0;left=0;bottom=0;right=0;overflow=hidden;" vertex="1" parent="5d2zbgUXZoIJqQ45c83p-2"><mxGeometry x="184" width="86" height="55" as="geometry"><mxRectangle width="86" height="55" as="alternateBounds"/></mxGeometry></mxCell><mxCell id="5d2zbgUXZoIJqQ45c83p-6" value="&lt;span style=&quot;font-size: 16px;&quot;&gt;Name&lt;/span&gt;" style="shape=partialRectangle;html=1;whiteSpace=wrap;connectable=0;fillColor=none;top=0;left=0;bottom=0;right=0;overflow=hidden;" vertex="1" parent="5d2zbgUXZoIJqQ45c83p-2"><mxGeometry x="270" width="92" height="55" as="geometry"><mxRectangle width="92" height="55" as="alternateBounds"/></mxGeometry></mxCell><mxCell id="5d2zbgUXZoIJqQ45c83p-7" value="&lt;span style=&quot;font-size: 16px;&quot;&gt;Description&lt;/span&gt;" style="shape=partialRectangle;html=1;whiteSpace=wrap;connectable=0;fillColor=none;top=0;left=0;bottom=0;right=0;overflow=hidden;" vertex="1" parent="5d2zbgUXZoIJqQ45c83p-2"><mxGeometry x="362" width="88" height="55" as="geometry"><mxRectangle width="88" height="55" as="alternateBounds"/></mxGeometry></mxCell><mxCell id="5d2zbgUXZoIJqQ45c83p-8" value="&lt;p style=&quot;line-height: 85%;&quot;&gt;&lt;span style=&quot;font-size: 16px;&quot;&gt;Price&lt;/span&gt;&lt;br&gt;&lt;/p&gt;" style="shape=partialRectangle;html=1;whiteSpace=wrap;connectable=0;fillColor=none;top=0;left=0;bottom=0;right=0;overflow=hidden;" vertex="1" parent="5d2zbgUXZoIJqQ45c83p-2"><mxGeometry x="450" width="83" height="55" as="geometry"><mxRectangle width="83" height="55" as="alternateBounds"/></mxGeometry></mxCell><mxCell id="5d2zbgUXZoIJqQ45c83p-9" value="StockQuantity" style="shape=partialRectangle;html=1;whiteSpace=wrap;connectable=0;fillColor=none;top=0;left=0;bottom=0;right=0;overflow=hidden;" vertex="1" parent="5d2zbgUXZoIJqQ45c83p-2"><mxGeometry x="533" width="97" height="55" as="geometry"><mxRectangle width="97" height="55" as="alternateBounds"/></mxGeometry></mxCell><mxCell id="5d2zbgUXZoIJqQ45c83p-10" value="" style="shape=tableRow;horizontal=0;startSize=0;swimlaneHead=0;swimlaneBody=0;top=0;left=0;bottom=0;right=0;collapsible=0;dropTarget=0;fillColor=none;points=[[0,0.5],[1,0.5]];portConstraint=eastwest;" vertex="1" parent="5d2zbgUXZoIJqQ45c83p-1"><mxGeometry y="55" width="630" height="57" as="geometry"/></mxCell><mxCell id="5d2zbgUXZoIJqQ45c83p-11" value="1232921980" style="shape=partialRectangle;html=1;whiteSpace=wrap;connectable=0;fillColor=none;top=0;left=0;bottom=0;right=0;overflow=hidden;" vertex="1" parent="5d2zbgUXZoIJqQ45c83p-10"><mxGeometry width="90" height="57" as="geometry"><mxRectangle width="90" height="57" as="alternateBounds"/></mxGeometry></mxCell><mxCell id="5d2zbgUXZoIJqQ45c83p-12" value="17676" style="shape=partialRectangle;html=1;whiteSpace=wrap;connectable=0;fillColor=none;top=0;left=0;bottom=0;right=0;overflow=hidden;" vertex="1" parent="5d2zbgUXZoIJqQ45c83p-10"><mxGeometry x="90" width="94" height="57" as="geometry"><mxRectangle width="94" height="57" as="alternateBounds"/></mxGeometry></mxCell><mxCell id="5d2zbgUXZoIJqQ45c83p-13" value="10" style="shape=partialRectangle;html=1;whiteSpace=wrap;connectable=0;fillColor=none;top=0;left=0;bottom=0;right=0;overflow=hidden;" vertex="1" parent="5d2zbgUXZoIJqQ45c83p-10"><mxGeometry x="184" width="86" height="57" as="geometry"><mxRectangle width="86" height="57" as="alternateBounds"/></mxGeometry></mxCell><mxCell id="5d2zbgUXZoIJqQ45c83p-14" value="LG OLED 44´TV" style="shape=partialRectangle;html=1;whiteSpace=wrap;connectable=0;fillColor=none;top=0;left=0;bottom=0;right=0;overflow=hidden;" vertex="1" parent="5d2zbgUXZoIJqQ45c83p-10"><mxGeometry x="270" width="92" height="57" as="geometry"><mxRectangle width="92" height="57" as="alternateBounds"/></mxGeometry></mxCell><mxCell id="5d2zbgUXZoIJqQ45c83p-15" value="4K HDR TV&amp;nbsp;" style="shape=partialRectangle;html=1;whiteSpace=wrap;connectable=0;fillColor=none;top=0;left=0;bottom=0;right=0;overflow=hidden;" vertex="1" parent="5d2zbgUXZoIJqQ45c83p-10"><mxGeometry x="362" width="88" height="57" as="geometry"><mxRectangle width="88" height="57" as="alternateBounds"/></mxGeometry></mxCell><mxCell id="5d2zbgUXZoIJqQ45c83p-16" value="11000" style="shape=partialRectangle;html=1;whiteSpace=wrap;connectable=0;fillColor=none;top=0;left=0;bottom=0;right=0;overflow=hidden;" vertex="1" parent="5d2zbgUXZoIJqQ45c83p-10"><mxGeometry x="450" width="83" height="57" as="geometry"><mxRectangle width="83" height="57" as="alternateBounds"/></mxGeometry></mxCell><mxCell id="5d2zbgUXZoIJqQ45c83p-17" value="8" style="shape=partialRectangle;html=1;whiteSpace=wrap;connectable=0;fillColor=none;top=0;left=0;bottom=0;right=0;overflow=hidden;" vertex="1" parent="5d2zbgUXZoIJqQ45c83p-10"><mxGeometry x="533" width="97" height="57" as="geometry"><mxRectangle width="97" height="57" as="alternateBounds"/></mxGeometry></mxCell><mxCell id="5d2zbgUXZoIJqQ45c83p-18" value="" style="shape=tableRow;horizontal=0;startSize=0;swimlaneHead=0;swimlaneBody=0;top=0;left=0;bottom=0;right=0;collapsible=0;dropTarget=0;fillColor=none;points=[[0,0.5],[1,0.5]];portConstraint=eastwest;" vertex="1" parent="5d2zbgUXZoIJqQ45c83p-1"><mxGeometry y="112" width="630" height="68" as="geometry"/></mxCell><mxCell id="5d2zbgUXZoIJqQ45c83p-19" value="1293292322" style="shape=partialRectangle;html=1;whiteSpace=wrap;connectable=0;fillColor=none;top=0;left=0;bottom=0;right=0;overflow=hidden;" vertex="1" parent="5d2zbgUXZoIJqQ45c83p-18"><mxGeometry width="90" height="68" as="geometry"><mxRectangle width="90" height="68" as="alternateBounds"/></mxGeometry></mxCell><mxCell id="5d2zbgUXZoIJqQ45c83p-20" value="12321" style="shape=partialRectangle;html=1;whiteSpace=wrap;connectable=0;fillColor=none;top=0;left=0;bottom=0;right=0;overflow=hidden;" vertex="1" parent="5d2zbgUXZoIJqQ45c83p-18"><mxGeometry x="90" width="94" height="68" as="geometry"><mxRectangle width="94" height="68" as="alternateBounds"/></mxGeometry></mxCell><mxCell id="5d2zbgUXZoIJqQ45c83p-21" value="8" style="shape=partialRectangle;html=1;whiteSpace=wrap;connectable=0;fillColor=none;top=0;left=0;bottom=0;right=0;overflow=hidden;pointerEvents=1;" vertex="1" parent="5d2zbgUXZoIJqQ45c83p-18"><mxGeometry x="184" width="86" height="68" as="geometry"><mxRectangle width="86" height="68" as="alternateBounds"/></mxGeometry></mxCell><mxCell id="5d2zbgUXZoIJqQ45c83p-22" value="JBL bluetooth speeker" style="shape=partialRectangle;html=1;whiteSpace=wrap;connectable=0;fillColor=none;top=0;left=0;bottom=0;right=0;overflow=hidden;pointerEvents=1;" vertex="1" parent="5d2zbgUXZoIJqQ45c83p-18"><mxGeometry x="270" width="92" height="68" as="geometry"><mxRectangle width="92" height="68" as="alternateBounds"/></mxGeometry></mxCell><mxCell id="5d2zbgUXZoIJqQ45c83p-23" value="USB-C charging cable included" style="shape=partialRectangle;html=1;whiteSpace=wrap;connectable=0;fillColor=none;top=0;left=0;bottom=0;right=0;overflow=hidden;pointerEvents=1;" vertex="1" parent="5d2zbgUXZoIJqQ45c83p-18"><mxGeometry x="362" width="88" height="68" as="geometry"><mxRectangle width="88" height="68" as="alternateBounds"/></mxGeometry></mxCell><mxCell id="5d2zbgUXZoIJqQ45c83p-24" value="2000" style="shape=partialRectangle;html=1;whiteSpace=wrap;connectable=0;fillColor=none;top=0;left=0;bottom=0;right=0;overflow=hidden;pointerEvents=1;" vertex="1" parent="5d2zbgUXZoIJqQ45c83p-18"><mxGeometry x="450" width="83" height="68" as="geometry"><mxRectangle width="83" height="68" as="alternateBounds"/></mxGeometry></mxCell><mxCell id="5d2zbgUXZoIJqQ45c83p-25" value="25" style="shape=partialRectangle;html=1;whiteSpace=wrap;connectable=0;fillColor=none;top=0;left=0;bottom=0;right=0;overflow=hidden;pointerEvents=1;" vertex="1" parent="5d2zbgUXZoIJqQ45c83p-18"><mxGeometry x="533" width="97" height="68" as="geometry"><mxRectangle width="97" height="68" as="alternateBounds"/></mxGeometry></mxCell><mxCell id="5d2zbgUXZoIJqQ45c83p-26" style="shape=tableRow;horizontal=0;startSize=0;swimlaneHead=0;swimlaneBody=0;top=0;left=0;bottom=0;right=0;collapsible=0;dropTarget=0;fillColor=none;points=[[0,0.5],[1,0.5]];portConstraint=eastwest;" vertex="1" parent="5d2zbgUXZoIJqQ45c83p-1"><mxGeometry y="180" width="630" height="70" as="geometry"/></mxCell><mxCell id="5d2zbgUXZoIJqQ45c83p-27" value="3243243233" style="shape=partialRectangle;html=1;whiteSpace=wrap;connectable=0;fillColor=none;top=0;left=0;bottom=0;right=0;overflow=hidden;" vertex="1" parent="5d2zbgUXZoIJqQ45c83p-26"><mxGeometry width="90" height="70" as="geometry"><mxRectangle width="90" height="70" as="alternateBounds"/></mxGeometry></mxCell><mxCell id="5d2zbgUXZoIJqQ45c83p-28" value="34124" style="shape=partialRectangle;html=1;whiteSpace=wrap;connectable=0;fillColor=none;top=0;left=0;bottom=0;right=0;overflow=hidden;" vertex="1" parent="5d2zbgUXZoIJqQ45c83p-26"><mxGeometry x="90" width="94" height="70" as="geometry"><mxRectangle width="94" height="70" as="alternateBounds"/></mxGeometry></mxCell><mxCell id="5d2zbgUXZoIJqQ45c83p-29" value="2" style="shape=partialRectangle;html=1;whiteSpace=wrap;connectable=0;fillColor=none;top=0;left=0;bottom=0;right=0;overflow=hidden;pointerEvents=1;" vertex="1" parent="5d2zbgUXZoIJqQ45c83p-26"><mxGeometry x="184" width="86" height="70" as="geometry"><mxRectangle width="86" height="70" as="alternateBounds"/></mxGeometry></mxCell><mxCell id="5d2zbgUXZoIJqQ45c83p-30" value="iPhone 15 Pro Max" style="shape=partialRectangle;html=1;whiteSpace=wrap;connectable=0;fillColor=none;top=0;left=0;bottom=0;right=0;overflow=hidden;pointerEvents=1;" vertex="1" parent="5d2zbgUXZoIJqQ45c83p-26"><mxGeometry x="270" width="92" height="70" as="geometry"><mxRectangle width="92" height="70" as="alternateBounds"/></mxGeometry></mxCell><mxCell id="5d2zbgUXZoIJqQ45c83p-31" value="Cool smart phone" style="shape=partialRectangle;html=1;whiteSpace=wrap;connectable=0;fillColor=none;top=0;left=0;bottom=0;right=0;overflow=hidden;pointerEvents=1;" vertex="1" parent="5d2zbgUXZoIJqQ45c83p-26"><mxGeometry x="362" width="88" height="70" as="geometry"><mxRectangle width="88" height="70" as="alternateBounds"/></mxGeometry></mxCell><mxCell id="5d2zbgUXZoIJqQ45c83p-32" value="12000" style="shape=partialRectangle;html=1;whiteSpace=wrap;connectable=0;fillColor=none;top=0;left=0;bottom=0;right=0;overflow=hidden;pointerEvents=1;" vertex="1" parent="5d2zbgUXZoIJqQ45c83p-26"><mxGeometry x="450" width="83" height="70" as="geometry"><mxRectangle width="83" height="70" as="alternateBounds"/></mxGeometry></mxCell><mxCell id="5d2zbgUXZoIJqQ45c83p-33" value="16" style="shape=partialRectangle;html=1;whiteSpace=wrap;connectable=0;fillColor=none;top=0;left=0;bottom=0;right=0;overflow=hidden;pointerEvents=1;" vertex="1" parent="5d2zbgUXZoIJqQ45c83p-26"><mxGeometry x="533" width="97" height="70" as="geometry"><mxRectangle width="97" height="70" as="alternateBounds"/></mxGeometry></mxCell><mxCell id="5d2zbgUXZoIJqQ45c83p-34" value="UserOrder 2NF, 3NF and BCNF" style="text;strokeColor=none;fillColor=none;html=1;fontSize=24;fontStyle=1;verticalAlign=middle;align=center;" vertex="1" parent="1"><mxGeometry x="375" y="30" width="100" height="40" as="geometry"/></mxCell><mxCell id="5d2zbgUXZoIJqQ45c83p-35" value="Product&lt;br&gt;" style="text;strokeColor=none;fillColor=none;html=1;fontSize=24;fontStyle=1;verticalAlign=middle;align=center;" vertex="1" parent="1"><mxGeometry x="20" y="100" width="100" height="40" as="geometry"/></mxCell><mxCell id="5d2zbgUXZoIJqQ45c83p-36" value="" style="shape=table;html=1;whiteSpace=wrap;startSize=0;container=1;collapsible=0;childLayout=tableLayout;" vertex="1" parent="1"><mxGeometry y="460" width="390" height="180" as="geometry"/></mxCell><mxCell id="5d2zbgUXZoIJqQ45c83p-37" value="" style="shape=tableRow;horizontal=0;startSize=0;swimlaneHead=0;swimlaneBody=0;top=0;left=0;bottom=0;right=0;collapsible=0;dropTarget=0;fillColor=none;points=[[0,0.5],[1,0.5]];portConstraint=eastwest;" vertex="1" parent="5d2zbgUXZoIJqQ45c83p-36"><mxGeometry width="390" height="47" as="geometry"/></mxCell><mxCell id="5d2zbgUXZoIJqQ45c83p-38" value="&lt;span style=&quot;font-size: 16px;&quot;&gt;BrandID&lt;/span&gt;" style="shape=partialRectangle;html=1;whiteSpace=wrap;connectable=0;fillColor=none;top=0;left=0;bottom=0;right=0;overflow=hidden;" vertex="1" parent="5d2zbgUXZoIJqQ45c83p-37"><mxGeometry width="130" height="47" as="geometry"><mxRectangle width="130" height="47" as="alternateBounds"/></mxGeometry></mxCell><mxCell id="5d2zbgUXZoIJqQ45c83p-39" value="Name" style="shape=partialRectangle;html=1;whiteSpace=wrap;connectable=0;fillColor=none;top=0;left=0;bottom=0;right=0;overflow=hidden;" vertex="1" parent="5d2zbgUXZoIJqQ45c83p-37"><mxGeometry x="130" width="130" height="47" as="geometry"><mxRectangle width="130" height="47" as="alternateBounds"/></mxGeometry></mxCell><mxCell id="5d2zbgUXZoIJqQ45c83p-40" value="Description" style="shape=partialRectangle;html=1;whiteSpace=wrap;connectable=0;fillColor=none;top=0;left=0;bottom=0;right=0;overflow=hidden;" vertex="1" parent="5d2zbgUXZoIJqQ45c83p-37"><mxGeometry x="260" width="130" height="47" as="geometry"><mxRectangle width="130" height="47" as="alternateBounds"/></mxGeometry></mxCell><mxCell id="5d2zbgUXZoIJqQ45c83p-41" value="" style="shape=tableRow;horizontal=0;startSize=0;swimlaneHead=0;swimlaneBody=0;top=0;left=0;bottom=0;right=0;collapsible=0;dropTarget=0;fillColor=none;points=[[0,0.5],[1,0.5]];portConstraint=eastwest;" vertex="1" parent="5d2zbgUXZoIJqQ45c83p-36"><mxGeometry y="47" width="390" height="46" as="geometry"/></mxCell><mxCell id="5d2zbgUXZoIJqQ45c83p-42" value="17676" style="shape=partialRectangle;html=1;whiteSpace=wrap;connectable=0;fillColor=none;top=0;left=0;bottom=0;right=0;overflow=hidden;" vertex="1" parent="5d2zbgUXZoIJqQ45c83p-41"><mxGeometry width="130" height="46" as="geometry"><mxRectangle width="130" height="46" as="alternateBounds"/></mxGeometry></mxCell><mxCell id="5d2zbgUXZoIJqQ45c83p-43" value="LG" style="shape=partialRectangle;html=1;whiteSpace=wrap;connectable=0;fillColor=none;top=0;left=0;bottom=0;right=0;overflow=hidden;" vertex="1" parent="5d2zbgUXZoIJqQ45c83p-41"><mxGeometry x="130" width="130" height="46" as="geometry"><mxRectangle width="130" height="46" as="alternateBounds"/></mxGeometry></mxCell><mxCell id="5d2zbgUXZoIJqQ45c83p-44" value="Brand that makes TVs" style="shape=partialRectangle;html=1;whiteSpace=wrap;connectable=0;fillColor=none;top=0;left=0;bottom=0;right=0;overflow=hidden;" vertex="1" parent="5d2zbgUXZoIJqQ45c83p-41"><mxGeometry x="260" width="130" height="46" as="geometry"><mxRectangle width="130" height="46" as="alternateBounds"/></mxGeometry></mxCell><mxCell id="5d2zbgUXZoIJqQ45c83p-45" style="shape=tableRow;horizontal=0;startSize=0;swimlaneHead=0;swimlaneBody=0;top=0;left=0;bottom=0;right=0;collapsible=0;dropTarget=0;fillColor=none;points=[[0,0.5],[1,0.5]];portConstraint=eastwest;" vertex="1" parent="5d2zbgUXZoIJqQ45c83p-36"><mxGeometry y="93" width="390" height="47" as="geometry"/></mxCell><mxCell id="5d2zbgUXZoIJqQ45c83p-46" value="34124" style="shape=partialRectangle;html=1;whiteSpace=wrap;connectable=0;fillColor=none;top=0;left=0;bottom=0;right=0;overflow=hidden;" vertex="1" parent="5d2zbgUXZoIJqQ45c83p-45"><mxGeometry width="130" height="47" as="geometry"><mxRectangle width="130" height="47" as="alternateBounds"/></mxGeometry></mxCell><mxCell id="5d2zbgUXZoIJqQ45c83p-47" value="Apple" style="shape=partialRectangle;html=1;whiteSpace=wrap;connectable=0;fillColor=none;top=0;left=0;bottom=0;right=0;overflow=hidden;" vertex="1" parent="5d2zbgUXZoIJqQ45c83p-45"><mxGeometry x="130" width="130" height="47" as="geometry"><mxRectangle width="130" height="47" as="alternateBounds"/></mxGeometry></mxCell><mxCell id="5d2zbgUXZoIJqQ45c83p-48" value="Brand that makes smart phones" style="shape=partialRectangle;html=1;whiteSpace=wrap;connectable=0;fillColor=none;top=0;left=0;bottom=0;right=0;overflow=hidden;pointerEvents=1;" vertex="1" parent="5d2zbgUXZoIJqQ45c83p-45"><mxGeometry x="260" width="130" height="47" as="geometry"><mxRectangle width="130" height="47" as="alternateBounds"/></mxGeometry></mxCell><mxCell id="5d2zbgUXZoIJqQ45c83p-49" value="" style="shape=tableRow;horizontal=0;startSize=0;swimlaneHead=0;swimlaneBody=0;top=0;left=0;bottom=0;right=0;collapsible=0;dropTarget=0;fillColor=none;points=[[0,0.5],[1,0.5]];portConstraint=eastwest;" vertex="1" parent="5d2zbgUXZoIJqQ45c83p-36"><mxGeometry y="140" width="390" height="40" as="geometry"/></mxCell><mxCell id="5d2zbgUXZoIJqQ45c83p-50" value="12321" style="shape=partialRectangle;html=1;whiteSpace=wrap;connectable=0;fillColor=none;top=0;left=0;bottom=0;right=0;overflow=hidden;" vertex="1" parent="5d2zbgUXZoIJqQ45c83p-49"><mxGeometry width="130" height="40" as="geometry"><mxRectangle width="130" height="40" as="alternateBounds"/></mxGeometry></mxCell><mxCell id="5d2zbgUXZoIJqQ45c83p-51" value="JBL" style="shape=partialRectangle;html=1;whiteSpace=wrap;connectable=0;fillColor=none;top=0;left=0;bottom=0;right=0;overflow=hidden;" vertex="1" parent="5d2zbgUXZoIJqQ45c83p-49"><mxGeometry x="130" width="130" height="40" as="geometry"><mxRectangle width="130" height="40" as="alternateBounds"/></mxGeometry></mxCell><mxCell id="5d2zbgUXZoIJqQ45c83p-52" value="Brand that makes Speakers" style="shape=partialRectangle;html=1;whiteSpace=wrap;connectable=0;fillColor=none;top=0;left=0;bottom=0;right=0;overflow=hidden;pointerEvents=1;" vertex="1" parent="5d2zbgUXZoIJqQ45c83p-49"><mxGeometry x="260" width="130" height="40" as="geometry"><mxRectangle width="130" height="40" as="alternateBounds"/></mxGeometry></mxCell><mxCell id="5d2zbgUXZoIJqQ45c83p-53" value="Brand" style="text;strokeColor=none;fillColor=none;html=1;fontSize=24;fontStyle=1;verticalAlign=middle;align=center;" vertex="1" parent="1"><mxGeometry x="10" y="410" width="100" height="40" as="geometry"/></mxCell><mxCell id="5d2zbgUXZoIJqQ45c83p-54" value="" style="shape=table;html=1;whiteSpace=wrap;startSize=0;container=1;collapsible=0;childLayout=tableLayout;" vertex="1" parent="1"><mxGeometry x="450" y="460" width="380" height="179" as="geometry"/></mxCell><mxCell id="5d2zbgUXZoIJqQ45c83p-55" value="" style="shape=tableRow;horizontal=0;startSize=0;swimlaneHead=0;swimlaneBody=0;top=0;left=0;bottom=0;right=0;collapsible=0;dropTarget=0;fillColor=none;points=[[0,0.5],[1,0.5]];portConstraint=eastwest;" vertex="1" parent="5d2zbgUXZoIJqQ45c83p-54"><mxGeometry width="380" height="50" as="geometry"/></mxCell><mxCell id="5d2zbgUXZoIJqQ45c83p-56" value="&lt;span style=&quot;font-size: 16px;&quot;&gt;CategoryID&lt;/span&gt;" style="shape=partialRectangle;html=1;whiteSpace=wrap;connectable=0;fillColor=none;top=0;left=0;bottom=0;right=0;overflow=hidden;" vertex="1" parent="5d2zbgUXZoIJqQ45c83p-55"><mxGeometry width="124" height="50" as="geometry"><mxRectangle width="124" height="50" as="alternateBounds"/></mxGeometry></mxCell><mxCell id="5d2zbgUXZoIJqQ45c83p-57" value="Name" style="shape=partialRectangle;html=1;whiteSpace=wrap;connectable=0;fillColor=none;top=0;left=0;bottom=0;right=0;overflow=hidden;" vertex="1" parent="5d2zbgUXZoIJqQ45c83p-55"><mxGeometry x="124" width="130" height="50" as="geometry"><mxRectangle width="130" height="50" as="alternateBounds"/></mxGeometry></mxCell><mxCell id="5d2zbgUXZoIJqQ45c83p-58" value="Description" style="shape=partialRectangle;html=1;whiteSpace=wrap;connectable=0;fillColor=none;top=0;left=0;bottom=0;right=0;overflow=hidden;" vertex="1" parent="5d2zbgUXZoIJqQ45c83p-55"><mxGeometry x="254" width="126" height="50" as="geometry"><mxRectangle width="126" height="50" as="alternateBounds"/></mxGeometry></mxCell><mxCell id="5d2zbgUXZoIJqQ45c83p-59" value="" style="shape=tableRow;horizontal=0;startSize=0;swimlaneHead=0;swimlaneBody=0;top=0;left=0;bottom=0;right=0;collapsible=0;dropTarget=0;fillColor=none;points=[[0,0.5],[1,0.5]];portConstraint=eastwest;" vertex="1" parent="5d2zbgUXZoIJqQ45c83p-54"><mxGeometry y="50" width="380" height="40" as="geometry"/></mxCell><mxCell id="5d2zbgUXZoIJqQ45c83p-60" value="10" style="shape=partialRectangle;html=1;whiteSpace=wrap;connectable=0;fillColor=none;top=0;left=0;bottom=0;right=0;overflow=hidden;" vertex="1" parent="5d2zbgUXZoIJqQ45c83p-59"><mxGeometry width="124" height="40" as="geometry"><mxRectangle width="124" height="40" as="alternateBounds"/></mxGeometry></mxCell><mxCell id="5d2zbgUXZoIJqQ45c83p-61" value="TVs" style="shape=partialRectangle;html=1;whiteSpace=wrap;connectable=0;fillColor=none;top=0;left=0;bottom=0;right=0;overflow=hidden;" vertex="1" parent="5d2zbgUXZoIJqQ45c83p-59"><mxGeometry x="124" width="130" height="40" as="geometry"><mxRectangle width="130" height="40" as="alternateBounds"/></mxGeometry></mxCell><mxCell id="5d2zbgUXZoIJqQ45c83p-62" value="Everything concerning TVs" style="shape=partialRectangle;html=1;whiteSpace=wrap;connectable=0;fillColor=none;top=0;left=0;bottom=0;right=0;overflow=hidden;" vertex="1" parent="5d2zbgUXZoIJqQ45c83p-59"><mxGeometry x="254" width="126" height="40" as="geometry"><mxRectangle width="126" height="40" as="alternateBounds"/></mxGeometry></mxCell><mxCell id="5d2zbgUXZoIJqQ45c83p-63" value="" style="shape=tableRow;horizontal=0;startSize=0;swimlaneHead=0;swimlaneBody=0;top=0;left=0;bottom=0;right=0;collapsible=0;dropTarget=0;fillColor=none;points=[[0,0.5],[1,0.5]];portConstraint=eastwest;" vertex="1" parent="5d2zbgUXZoIJqQ45c83p-54"><mxGeometry y="90" width="380" height="50" as="geometry"/></mxCell><mxCell id="5d2zbgUXZoIJqQ45c83p-64" value="8" style="shape=partialRectangle;html=1;whiteSpace=wrap;connectable=0;fillColor=none;top=0;left=0;bottom=0;right=0;overflow=hidden;" vertex="1" parent="5d2zbgUXZoIJqQ45c83p-63"><mxGeometry width="124" height="50" as="geometry"><mxRectangle width="124" height="50" as="alternateBounds"/></mxGeometry></mxCell><mxCell id="5d2zbgUXZoIJqQ45c83p-65" value="Speakers" style="shape=partialRectangle;html=1;whiteSpace=wrap;connectable=0;fillColor=none;top=0;left=0;bottom=0;right=0;overflow=hidden;" vertex="1" parent="5d2zbgUXZoIJqQ45c83p-63"><mxGeometry x="124" width="130" height="50" as="geometry"><mxRectangle width="130" height="50" as="alternateBounds"/></mxGeometry></mxCell><mxCell id="5d2zbgUXZoIJqQ45c83p-66" value="Everything concerning Speakers" style="shape=partialRectangle;html=1;whiteSpace=wrap;connectable=0;fillColor=none;top=0;left=0;bottom=0;right=0;overflow=hidden;pointerEvents=1;" vertex="1" parent="5d2zbgUXZoIJqQ45c83p-63"><mxGeometry x="254" width="126" height="50" as="geometry"><mxRectangle width="126" height="50" as="alternateBounds"/></mxGeometry></mxCell><mxCell id="5d2zbgUXZoIJqQ45c83p-67" style="shape=tableRow;horizontal=0;startSize=0;swimlaneHead=0;swimlaneBody=0;top=0;left=0;bottom=0;right=0;collapsible=0;dropTarget=0;fillColor=none;points=[[0,0.5],[1,0.5]];portConstraint=eastwest;" vertex="1" parent="5d2zbgUXZoIJqQ45c83p-54"><mxGeometry y="140" width="380" height="39" as="geometry"/></mxCell><mxCell id="5d2zbgUXZoIJqQ45c83p-68" value="2" style="shape=partialRectangle;html=1;whiteSpace=wrap;connectable=0;fillColor=none;top=0;left=0;bottom=0;right=0;overflow=hidden;" vertex="1" parent="5d2zbgUXZoIJqQ45c83p-67"><mxGeometry width="124" height="39" as="geometry"><mxRectangle width="124" height="39" as="alternateBounds"/></mxGeometry></mxCell><mxCell id="5d2zbgUXZoIJqQ45c83p-69" value="Smart phones" style="shape=partialRectangle;html=1;whiteSpace=wrap;connectable=0;fillColor=none;top=0;left=0;bottom=0;right=0;overflow=hidden;" vertex="1" parent="5d2zbgUXZoIJqQ45c83p-67"><mxGeometry x="124" width="130" height="39" as="geometry"><mxRectangle width="130" height="39" as="alternateBounds"/></mxGeometry></mxCell><mxCell id="5d2zbgUXZoIJqQ45c83p-70" value="Everything concerning Smart phones" style="shape=partialRectangle;html=1;whiteSpace=wrap;connectable=0;fillColor=none;top=0;left=0;bottom=0;right=0;overflow=hidden;pointerEvents=1;" vertex="1" parent="5d2zbgUXZoIJqQ45c83p-67"><mxGeometry x="254" width="126" height="39" as="geometry"><mxRectangle width="126" height="39" as="alternateBounds"/></mxGeometry></mxCell><mxCell id="5d2zbgUXZoIJqQ45c83p-71" value="Category" style="text;strokeColor=none;fillColor=none;html=1;fontSize=24;fontStyle=1;verticalAlign=middle;align=center;" vertex="1" parent="1"><mxGeometry x="460" y="410" width="100" height="40" as="geometry"/></mxCell><mxCell id="5d2zbgUXZoIJqQ45c83p-72" value="&lt;h1 style=&quot;color: rgb(240, 240, 240); font-family: Helvetica; font-style: normal; font-variant-ligatures: normal; font-variant-caps: normal; letter-spacing: normal; orphans: 2; text-align: left; text-indent: 0px; text-transform: none; widows: 2; word-spacing: 0px; -webkit-text-stroke-width: 0px; text-decoration-thickness: initial; text-decoration-style: initial; text-decoration-color: initial; font-size: 30px;&quot;&gt;&lt;font style=&quot;font-size: 30px;&quot;&gt;2NF:&lt;/font&gt;&lt;/h1&gt;&lt;div style=&quot;font-size: 30px;&quot;&gt;&lt;font style=&quot;font-size: 30px;&quot;&gt;- It is in 1NF.&amp;nbsp;&lt;/font&gt;&lt;/div&gt;&lt;div style=&quot;font-size: 30px;&quot;&gt;&lt;font style=&quot;font-size: 30px;&quot;&gt;- There are no remaining partial dependancies.&amp;nbsp;&lt;/font&gt;&lt;/div&gt;&lt;div style=&quot;font-size: 30px;&quot;&gt;&lt;font style=&quot;font-size: 30px;&quot;&gt;&lt;br&gt;&lt;/font&gt;&lt;/div&gt;" style="text;whiteSpace=wrap;html=1;" vertex="1" parent="1"><mxGeometry x="10" y="670" width="330" height="240" as="geometry"/></mxCell><mxCell id="5d2zbgUXZoIJqQ45c83p-73" value="" style="sketch=0;html=1;aspect=fixed;strokeColor=none;shadow=0;align=center;verticalAlign=top;fillColor=#2D9C5E;shape=mxgraph.gcp2.check;fontSize=30;" vertex="1" parent="1"><mxGeometry x="250" y="750" width="37.5" height="30" as="geometry"/></mxCell><mxCell id="5d2zbgUXZoIJqQ45c83p-74" value="" style="sketch=0;html=1;aspect=fixed;strokeColor=none;shadow=0;align=center;verticalAlign=top;fillColor=#2D9C5E;shape=mxgraph.gcp2.check;fontSize=30;" vertex="1" parent="1"><mxGeometry x="270" y="830" width="37.5" height="30" as="geometry"/></mxCell><mxCell id="5d2zbgUXZoIJqQ45c83p-75" value="&lt;h1 style=&quot;font-size: 30px;&quot;&gt;3NF:&lt;/h1&gt;&lt;h1&gt;&lt;div style=&quot;font-weight: 400; font-size: 30px;&quot;&gt;- It is in 2NF.&amp;nbsp;&lt;/div&gt;&lt;div style=&quot;font-weight: 400; font-size: 30px;&quot;&gt;- There are no remaining transitive dependancies.&amp;nbsp;&lt;/div&gt;&lt;div style=&quot;font-weight: 400; font-size: 30px;&quot;&gt;- All non-key attributes depend on the whole primary key.&lt;/div&gt;&lt;div&gt;&lt;br&gt;&lt;/div&gt;&lt;/h1&gt;" style="text;html=1;strokeColor=none;fillColor=none;spacing=5;spacingTop=-20;whiteSpace=wrap;overflow=hidden;rounded=0;fontSize=30;" vertex="1" parent="1"><mxGeometry x="450" y="680" width="280" height="390" as="geometry"/></mxCell><mxCell id="5d2zbgUXZoIJqQ45c83p-76" value="" style="sketch=0;html=1;aspect=fixed;strokeColor=none;shadow=0;align=center;verticalAlign=top;fillColor=#2D9C5E;shape=mxgraph.gcp2.check;fontSize=30;" vertex="1" parent="1"><mxGeometry x="670" y="750" width="37.5" height="30" as="geometry"/></mxCell><mxCell id="5d2zbgUXZoIJqQ45c83p-77" value="" style="sketch=0;html=1;aspect=fixed;strokeColor=none;shadow=0;align=center;verticalAlign=top;fillColor=#2D9C5E;shape=mxgraph.gcp2.check;fontSize=30;" vertex="1" parent="1"><mxGeometry x="750" y="830" width="37.5" height="30" as="geometry"/></mxCell><mxCell id="5d2zbgUXZoIJqQ45c83p-78" value="&lt;h1 style=&quot;font-size: 30px;&quot;&gt;BCNF:&lt;/h1&gt;&lt;h1&gt;&lt;div style=&quot;font-weight: 400; font-size: 30px;&quot;&gt;- It is in 3NF.&amp;nbsp;&lt;/div&gt;&lt;div style=&quot;font-weight: 400; font-size: 30px;&quot;&gt;- All attributes depend on the whole primary key.&amp;nbsp;&lt;/div&gt;&lt;div&gt;&lt;br&gt;&lt;/div&gt;&lt;/h1&gt;" style="text;html=1;strokeColor=none;fillColor=none;spacing=5;spacingTop=-20;whiteSpace=wrap;overflow=hidden;rounded=0;fontSize=30;" vertex="1" parent="1"><mxGeometry x="7.5" y="920" width="310" height="240" as="geometry"/></mxCell><mxCell id="5d2zbgUXZoIJqQ45c83p-79" value="" style="sketch=0;html=1;aspect=fixed;strokeColor=none;shadow=0;align=center;verticalAlign=top;fillColor=#2D9C5E;shape=mxgraph.gcp2.check;fontSize=30;" vertex="1" parent="1"><mxGeometry x="750" y="950" width="37.5" height="30" as="geometry"/></mxCell><mxCell id="5d2zbgUXZoIJqQ45c83p-80" value="" style="sketch=0;html=1;aspect=fixed;strokeColor=none;shadow=0;align=center;verticalAlign=top;fillColor=#2D9C5E;shape=mxgraph.gcp2.check;fontSize=30;" vertex="1" parent="1"><mxGeometry x="320" y="1000" width="37.5" height="30" as="geometry"/></mxCell><mxCell id="5d2zbgUXZoIJqQ45c83p-81" value="" style="sketch=0;html=1;aspect=fixed;strokeColor=none;shadow=0;align=center;verticalAlign=top;fillColor=#2D9C5E;shape=mxgraph.gcp2.check;fontSize=30;" vertex="1" parent="1"><mxGeometry x="320" y="1080" width="37.5" height="30" as="geometry"/></mxCell><mxCell id="5d2zbgUXZoIJqQ45c83p-82" value="" style="shape=table;html=1;whiteSpace=wrap;startSize=0;container=1;collapsible=0;childLayout=tableLayout;" vertex="1" parent="1"><mxGeometry x="670" y="160" width="330" height="250" as="geometry"/></mxCell><mxCell id="5d2zbgUXZoIJqQ45c83p-83" value="" style="shape=tableRow;horizontal=0;startSize=0;swimlaneHead=0;swimlaneBody=0;top=0;left=0;bottom=0;right=0;collapsible=0;dropTarget=0;fillColor=none;points=[[0,0.5],[1,0.5]];portConstraint=eastwest;" vertex="1" parent="5d2zbgUXZoIJqQ45c83p-82"><mxGeometry width="330" height="68" as="geometry"/></mxCell><mxCell id="5d2zbgUXZoIJqQ45c83p-84" value="&lt;span style=&quot;font-size: 16px;&quot;&gt;ProductID&lt;/span&gt;" style="shape=partialRectangle;html=1;whiteSpace=wrap;connectable=0;fillColor=none;top=0;left=0;bottom=0;right=0;overflow=hidden;" vertex="1" parent="5d2zbgUXZoIJqQ45c83p-83"><mxGeometry width="162" height="68" as="geometry"><mxRectangle width="162" height="68" as="alternateBounds"/></mxGeometry></mxCell><mxCell id="5d2zbgUXZoIJqQ45c83p-85" value="StockQuantity" style="shape=partialRectangle;html=1;whiteSpace=wrap;connectable=0;fillColor=none;top=0;left=0;bottom=0;right=0;overflow=hidden;" vertex="1" parent="5d2zbgUXZoIJqQ45c83p-83"><mxGeometry x="162" width="168" height="68" as="geometry"><mxRectangle width="168" height="68" as="alternateBounds"/></mxGeometry></mxCell><mxCell id="5d2zbgUXZoIJqQ45c83p-86" value="" style="shape=tableRow;horizontal=0;startSize=0;swimlaneHead=0;swimlaneBody=0;top=0;left=0;bottom=0;right=0;collapsible=0;dropTarget=0;fillColor=none;points=[[0,0.5],[1,0.5]];portConstraint=eastwest;" vertex="1" parent="5d2zbgUXZoIJqQ45c83p-82"><mxGeometry y="68" width="330" height="57" as="geometry"/></mxCell><mxCell id="5d2zbgUXZoIJqQ45c83p-87" value="1232921980" style="shape=partialRectangle;html=1;whiteSpace=wrap;connectable=0;fillColor=none;top=0;left=0;bottom=0;right=0;overflow=hidden;" vertex="1" parent="5d2zbgUXZoIJqQ45c83p-86"><mxGeometry width="162" height="57" as="geometry"><mxRectangle width="162" height="57" as="alternateBounds"/></mxGeometry></mxCell><mxCell id="5d2zbgUXZoIJqQ45c83p-88" value="8" style="shape=partialRectangle;html=1;whiteSpace=wrap;connectable=0;fillColor=none;top=0;left=0;bottom=0;right=0;overflow=hidden;" vertex="1" parent="5d2zbgUXZoIJqQ45c83p-86"><mxGeometry x="162" width="168" height="57" as="geometry"><mxRectangle width="168" height="57" as="alternateBounds"/></mxGeometry></mxCell><mxCell id="5d2zbgUXZoIJqQ45c83p-89" value="" style="shape=tableRow;horizontal=0;startSize=0;swimlaneHead=0;swimlaneBody=0;top=0;left=0;bottom=0;right=0;collapsible=0;dropTarget=0;fillColor=none;points=[[0,0.5],[1,0.5]];portConstraint=eastwest;" vertex="1" parent="5d2zbgUXZoIJqQ45c83p-82"><mxGeometry y="125" width="330" height="70" as="geometry"/></mxCell><mxCell id="5d2zbgUXZoIJqQ45c83p-90" value="1293292322" style="shape=partialRectangle;html=1;whiteSpace=wrap;connectable=0;fillColor=none;top=0;left=0;bottom=0;right=0;overflow=hidden;" vertex="1" parent="5d2zbgUXZoIJqQ45c83p-89"><mxGeometry width="162" height="70" as="geometry"><mxRectangle width="162" height="70" as="alternateBounds"/></mxGeometry></mxCell><mxCell id="5d2zbgUXZoIJqQ45c83p-91" value="25" style="shape=partialRectangle;html=1;whiteSpace=wrap;connectable=0;fillColor=none;top=0;left=0;bottom=0;right=0;overflow=hidden;" vertex="1" parent="5d2zbgUXZoIJqQ45c83p-89"><mxGeometry x="162" width="168" height="70" as="geometry"><mxRectangle width="168" height="70" as="alternateBounds"/></mxGeometry></mxCell><mxCell id="5d2zbgUXZoIJqQ45c83p-92" style="shape=tableRow;horizontal=0;startSize=0;swimlaneHead=0;swimlaneBody=0;top=0;left=0;bottom=0;right=0;collapsible=0;dropTarget=0;fillColor=none;points=[[0,0.5],[1,0.5]];portConstraint=eastwest;" vertex="1" parent="5d2zbgUXZoIJqQ45c83p-82"><mxGeometry y="195" width="330" height="55" as="geometry"/></mxCell><mxCell id="5d2zbgUXZoIJqQ45c83p-93" value="3243243233" style="shape=partialRectangle;html=1;whiteSpace=wrap;connectable=0;fillColor=none;top=0;left=0;bottom=0;right=0;overflow=hidden;" vertex="1" parent="5d2zbgUXZoIJqQ45c83p-92"><mxGeometry width="162" height="55" as="geometry"><mxRectangle width="162" height="55" as="alternateBounds"/></mxGeometry></mxCell><mxCell id="5d2zbgUXZoIJqQ45c83p-94" value="26" style="shape=partialRectangle;html=1;whiteSpace=wrap;connectable=0;fillColor=none;top=0;left=0;bottom=0;right=0;overflow=hidden;" vertex="1" parent="5d2zbgUXZoIJqQ45c83p-92"><mxGeometry x="162" width="168" height="55" as="geometry"><mxRectangle width="168" height="55" as="alternateBounds"/></mxGeometry></mxCell><mxCell id="5d2zbgUXZoIJqQ45c83p-95" value="Inventory" style="text;strokeColor=none;fillColor=none;html=1;fontSize=24;fontStyle=1;verticalAlign=middle;align=center;" vertex="1" parent="1"><mxGeometry x="680" y="110" width="100" height="40" as="geometry"/></mxCell></root></mxGraphModel></diagram><diagram id="fx0W5uwZ2rMj6P8Xt7Rp" name="User 2NF, 3NF, BCF"><mxGraphModel dx="774" dy="523" grid="1" gridSize="10" guides="1" tooltips="1" connect="1" arrows="1" fold="1" page="1" pageScale="1" pageWidth="850" pageHeight="1100" math="0" shadow="0"><root><mxCell id="0"/><mxCell id="1" parent="0"/></root></mxGraphModel></diagram></mxfile>